<?xml version="1.0" encoding="utf-8"?>
<!-- Generator: Adobe Illustrator 26.2.1, SVG Export Plug-In . SVG Version: 6.00 Build 0)  -->
<svg version="1.1" id="Layer_1" xmlns="http://www.w3.org/2000/svg" xmlns:xlink="http://www.w3.org/1999/xlink" x="0px" y="0px"
	 viewBox="0 0 420.1 92.9" style="enable-background:new 0 0 420.1 92.9;" xml:space="preserve">
<style type="text/css">
	.st0{clip-path:url(#SVGID_00000146467781469107242230000000431444430347493791_);}
	.st1{fill:#FFFFFF;}
	.st2{fill:#1D65AF;}
	.st3{fill:none;}
</style>
<g>
	<defs>
		<path id="SVGID_1_" d="M0.05,8.19v76.83h130.61V8.19H0.05z"/>
	</defs>
	<clipPath id="SVGID_00000174595555569885935100000010125823876911188138_">
		<use xlink:href="#SVGID_1_"  style="overflow:visible;"/>
	</clipPath>
	<g style="clip-path:url(#SVGID_00000174595555569885935100000010125823876911188138_);">
		<path class="st1" d="M0.05,8.19v76.83h130.61V8.19H0.05z"/>
		<path class="st2" d="M16.59,8.19L65.3,36.72l48.71-28.53H16.59z M16.59,85.02L65.3,56.49l48.71,28.53H16.59z M0.05,16.34v58.85
			l48.43-29.43L0.05,16.34z M130.66,16.34v58.85L82.23,45.76L130.66,16.34z"/>
	</g>
</g>
<path class="st1" d="M146.03,8.19h2.56v76.83h-2.56V8.19z"/>
<path class="st1" d="M179.09,72.76c8.37,0,18.16-3.33,18.16-15.67V26.12h-7.68v3.23c-2.69-3.59-6.94-5.68-11.42-5.61
	c-8.86,0-15.37,6.45-15.37,17.59s6.79,17.59,15.52,17.59c4.45-0.07,8.61-2.2,11.27-5.76v3.89c0,7.3-5.69,9.58-10.58,9.58
	c-4.19,0.28-8.28-1.34-11.14-4.41l-3.3,5.4c3.98,3.59,9.23,5.43,14.57,5.12L179.09,72.76z M180.32,52.27
	c-5.97,0-9.94-4.33-9.94-10.94s4.1-10.99,10.04-10.99c3.52,0.27,6.8,1.9,9.14,4.53v12.81c-2.39,2.64-5.7,4.26-9.25,4.53
	L180.32,52.27z M221.04,59.72c9.49,0.24,17.37-7.27,17.61-16.75c0.01-0.39,0.01-0.78-0.01-1.17c0.01-9.72-7.87-17.6-17.58-17.6
	c-9.72-0.01-17.6,7.87-17.6,17.58c0,0.01,0,0.01,0,0.02c-0.41,9.48,6.94,17.5,16.42,17.92C220.26,59.73,220.65,59.73,221.04,59.72z
	 M221.04,53.11c-6.33,0-9.86-5.33-9.86-11.42s3.53-11.35,9.86-11.35s9.86,5.33,9.86,11.35S227.42,53.11,221.04,53.11z M262.02,59.41
	L276,26.12h-7.94l-10.01,25.61l-9.91-25.61h-8.02l13.98,33.29H262.02z M280.95,59.64c2.77-0.08,4.97-2.35,4.97-5.12
	c0-2.74-2.23-4.97-4.97-4.96c-2.74,0-4.96,2.22-4.96,4.96C275.98,57.29,278.18,59.56,280.95,59.64z M306.84,59.64
	c9.22,0,14.27-4.61,14.27-10.71c0-13.62-20.72-9.09-20.72-15.11c0-2.41,2.41-4.25,6.33-4.25c3.84-0.09,7.54,1.4,10.24,4.12
	l3.12-5.25c-3.68-3.18-8.41-4.88-13.27-4.76c-8.66,0-13.47,4.76-13.47,10.24c0,13.19,20.72,8.37,20.72,15.11
	c0,2.69-2.33,4.53-6.81,4.53c-4.31-0.12-8.43-1.81-11.58-4.76l-3.46,5.48c4,3.64,9.27,5.58,14.67,5.4L306.84,59.64z M343.72,59.64
	c5.12,0.29,10.05-2,13.14-6.1l-4.89-4.61c-1.75,2.64-4.73,4.19-7.89,4.12c-6.17,0-10.24-4.76-10.24-11.42s4.17-11.35,10.24-11.35
	c3.14-0.13,6.12,1.37,7.89,3.97l4.89-4.48c-3.09-4.1-8.02-6.38-13.14-6.1c-9.49-0.28-17.4,7.19-17.68,16.67
	c-0.01,0.42-0.01,0.84,0.01,1.25c-0.39,9.51,7.01,17.53,16.52,17.92c0.38,0.02,0.76,0.02,1.15,0.01V59.64z M377.76,59.64
	c9.47,0.25,17.36-7.23,17.61-16.7c0.01-0.41,0.01-0.82-0.01-1.23c0-9.72-7.88-17.59-17.59-17.59c-9.72,0-17.59,7.88-17.59,17.59l0,0
	c-0.43,9.47,6.9,17.49,16.37,17.92C376.94,59.65,377.35,59.66,377.76,59.64L377.76,59.64z M377.76,53.04
	c-6.33,0-9.86-5.33-9.86-11.42s3.56-11.35,9.86-11.35c6.3,0,9.86,5.33,9.86,11.35S384.13,53.04,377.76,53.04z M413.15,59.64
	c2.48,0.16,4.92-0.62,6.84-2.2l-1.74-5.71c-0.74,0.84-1.81,1.3-2.92,1.28c-2.13,0-2.92-1.77-2.92-4.12V31.24h7.68v-5.12h-7.68V15.88
	h-7.68v10.24h-5.12v5.12h5.12v19.59c0,5.74,2.74,8.86,8.55,8.86L413.15,59.64z"/>
<g>
	<path class="st1" d="M130.67,85.15H0.05V8.18h130.62V85.15z M1.98,83.22h126.76v-73.1H1.98V83.22z"/>
</g>
<rect x="-0.3" y="-0.2" class="st3" width="420.1" height="92.9"/>
</svg>
