<svg width="120" height="120" viewBox="0 0 120 120" fill="none" xmlns="http://www.w3.org/2000/svg">
	<circle opacity="0.5" cx="60" cy="60" r="60" fill="#CFE1E5"/>
	<path d="M42.5 79.1818C41.2625 79.1818 40.2031 78.7145 39.3219 77.7798C38.4406 76.8452 38 75.7216 38 74.4091V45.7727C38 44.4602 38.4406 43.3366 39.3219 42.402C40.2031 41.4673 41.2625 41 42.5 41H78.5C79.7375 41 80.7969 41.4673 81.6781 42.402C82.5594 43.3366 83 44.4602 83 45.7727V74.4091C83 75.7216 82.5594 76.8452 81.6781 77.7798C80.7969 78.7145 79.7375 79.1818 78.5 79.1818H42.5ZM60.5 62.4773L42.5 50.5455V74.4091H78.5V50.5455L60.5 62.4773ZM60.5 57.7045L78.5 45.7727H42.5L60.5 57.7045ZM42.5 50.5455V45.7727V74.4091V50.5455Z"
		  fill="#006DA2"/>
</svg>
