<svg xmlns="http://www.w3.org/2000/svg" width="238.059" height="69.804" viewBox="0 0 238.059 69.804"><path d="M211.195 29.72c-.157.4-.18.935-.15 1.523.85.068.73-1.373.15-1.523m-27.13 18.442c.03-.355-.487-.4-.76-.61-.228-.173-.736-.39-.457-.61 1.378.044 1.873.97 2.438 1.83.236-.692-.496-1.604-.914-2.135.315-.09 1 .188 1.067-.153-.18-.227-.636-.178-.612-.61.415-.093.714-.3.915-.61h-1.524c.088-.323.524-.83 0-.912-.43.484-.706 1.123-1.678 1.066.123-.285.255-.558.306-.915-.534.18-.834.59-1.525.61-1.17-.39-2.14-2.6-1.068-3.81.26-.4 1.168-.154 1.525-.458-.37-.085-.783-.13-.762-.61.442-.318 1.793-.02 1.982-.15-.218-.293-.47-.547-.763-.763.293-.267.94-.18.916-.762-.59-.022-1.34.118-1.524-.306.058-.775-.08-2.15-.612-1.828.37.932-.088 2.347-.914 2.59.09-.524.595-1.428.457-1.675-.625.352-1.043 1.528-1.675.61.45.73.348 1.404.306 2.134-.045.733.07 1.57.152 2.286.263 2.284 1.643 3.73 2.743 5.334.053.454.088.93.457 1.067-.253-1.268.83-.52 1.524-.608m31.55-31.244c-.43.28-1.004.417-1.525.61-.983.694-1.14 2.627-.456 3.81.007-.503.257-.76.152-1.373.352-.187.44-.745.763-1.066.076-.078.374-.1.456-.154.342-.233.857-.995 1.067-.763-.365.974-1.25.777-1.676 1.526-.77 1.352.36 3.18-.458 4.722 1.39-.234 1.32-1.93 1.522-3.352.498-.22.797-1.433 1.22-1.22-.14.59-.718.862-.914 1.372-.334.876.005 2.55-.306 3.2-.21.45-.75.57-.913 1.067 2.052-.03 2.534-1.63 3.047-3.2.324 2.56-2.232 3.05-1.83 5.18.312-.532.687-1.01 1.22-1.37.738-.498 1.597-.51 2.135-1.22.123-.163.06-.425.152-.61.06-.124.245-.285.305-.457.165-.482-.067-1.076.456-1.22.084 1.485-1.166 2.995-.306 4.27.432-.535.855-1.077 1.525-1.374-.01-.47.36-.594.456-1.068.267-1.307-.563-2.96.307-3.504-.41 1.21.164 2.45 0 3.658-.12.886-1.246 2.177-.306 3.048.05-.882.982-1.09 1.374-1.677.265-.397.558-1.303.61-1.677.287-2.05-.993-3.095-.61-4.57.07 1.91 1.376 2.585 1.067 4.876-.827.736-.453 3.5.763 2.286-.43-.03-.65-.265-.61-.763.654-1.312 1.458-2.304 1.22-3.964-.098-.68-.523-1.165-.763-1.523-.35-.524-1.006-1.14-.76-1.677.2.865.965 1.168 1.37 1.83.238.218.12.793.61.76.13-1.017.283-1.74-.153-2.437-.353-.565-1.203-.494-1.523-1.068.356.048.57.24 1.065.15.306-.018.71 1.038.763.306.08-.638-.268-.85-.306-1.37-.667-.348-1.36.01-2.133 0 .25 1.152-.637 1.85-1.525 1.37-.59.833-.954 1.894-1.22 3.05-.45-.2-.377-.538-.61-.306-.49.49-1.31 1.11-1.676 1.372-.444-.624-.598-1.537-.915-2.286-.042.138-.568.51-.61.15.187-.928.164-2.068.153-3.198-1.093.135-.982-1.072-.763-1.83-.417-.242-.752-.57-1.218-.76-.433.38-.907.72-1.22 1.22.587.02 1.338-.12 1.523.302-.556.09-1.388-.08-1.98.305-.154.51-.274 1.048-.46 1.525.468-.07.692-.553 1.222-.762.36-.144.924-.266 1.218-.152m-30.176-7.01v.76c.31.147.602.312.913.458-.06-2.785 1.363-4.132 3.353-4.268 2.63-.18 4.205 2.162 6.402 2.287.497-.113.51-.71 1.066-.763.16.4.438.68.915.763 2.114-.27 3.84-2.52 6.4-2.287 1.73.157 2.92 1.36 3.2 3.354.035.238-.132.677.153.914.138-.268.534-.28.762-.457v-.916c.293.31.613.354 1.068.153.076-1.01-.694-1.246-.915-1.98-.066-.218.083-.573-.153-.613-.104.406-.24.778-.458 1.068-.278-1.042-1.03-1.61-1.828-2.133.264.01.473-.036.608-.154v-.763c-.67-.294-1.905-.025-2.44-.456-.13.452.652.752.306.914-.937-.17-2.063.27-2.438.154.318-.135-.05-.852-.457-.762-.717.3-1.17.864-1.983 1.067.2.307.808.208.915.608-1.05.423-1.848 1.1-3.05 1.372-.035-.217-.25-.257-.304-.457.31-.146.604-.312.916-.46.337-.617.627-1.42.304-2.284-.343-.52-1.13-.6-1.22-1.373.29.065.276.436.763.306.39-.195-.142-.748.154-.762.47.132.453.517.456-.305.325.328.83.057.915-.304-.115-.503-.753-.375-.915-.457-.01-.896-.054.034-.61-.152.196-.2.196-.56 0-.76-.478-.255-.622.566-.762.15.045-.31.412-.297.458-.608-.967.194-.216-.385-.61-.762h-.61c-.39.194.143.746-.152.762-.18.024-.433-.026-.456.152.222.133.482.23.456.61-.29-.065-.276-.436-.76-.305-.39.193.14.746-.154.76-.472-.13-.455-.516-.458.306-.42-.402-.838.057-.914.457.2.403.807.16.914.305.012.897.056-.034.61.153-.196.2-.196.562 0 .763.48.253.622-.567.762-.153-.228.584-.867.758-1.22 1.22-.323.863-.032 1.666.306 2.284.288.223.792.226.914.612-.216.036-.257.25-.456.304-1.036-.44-2.1-.848-2.898-1.524.327-.183.83-.186.916-.61-1.195.127-1.16-.974-2.287-.914-.315.286-.175.792-.306.914-.502-.41-1.54-.288-2.438-.305.136-.32.464-.45.457-.913-.534.43-1.768.162-2.438.456v.763c.093.21.586.022.61.305-1.095.228-1.394 1.25-1.982 1.982.005-.51-.21-.806-.457-1.068.225 1.395-1.044 1.295-.914 2.593.455.402.932-.21 1.067 0m17.525 42.522c.184-.07.688.244.61-.306-.95-.235-1.784.446-2.132.305.036-.33.558-.95.304-1.067-.325.15-.57.786-.915.456v-1.067c-.574.137-.577.845-.61 1.523-.396-.06-.46-.455-.914-.457.123.685.85 1.424.457 2.133-.36-.047-.284-.53-.763-.457 1.356 2.757-3.55 3.25-3.962 1.22-.258-.675.544-1.07.152-1.37-.106.21-.693.706-.76.455-.08-.942.244-1.48.608-1.98-.452-.134-.752.65-.914.304-.28-.38-.107-1.214-.61-1.37-.1.406-.064.95-.306 1.217-.244-.21-.482-.43-.76-.607.007.498.433.582.304 1.218-.543-.32-1.18-.545-2.134-.456-.103.54.55.232.763.305.75.258 1.678 1.384 1.523 1.828-.628-.184-.847-.78-1.372-1.067.1.61.38 1.046.612 1.525-.205.153-.568.144-.612.457 1.753-.3 2.567.624 3.658.915.34.09.72.116 1.067.152 2.282.232 3.367-.426 4.876-1.068.513-.097 1.417.197 1.676-.152-.386-.02-.59-.223-.61-.61.217-.202.652-.96.306-1.22-.123.494-.928 1.096-1.22.915.263-.81.882-1.373 1.677-1.676M181.172 22.86c-.374.503-.342 1.053-.612 1.676-.293.684-.785 1.317-1.065 1.98.35.7.004 1.494 0 2.287.66 0 .966.354 1.677.305 1.087-1.504 1.002-4.178 2.286-5.486.2.665-.34 1.377 0 1.675.043-.135.412-.667.456-.305.24 2.28-.32 4.966 0 7.01.075.472.304.966.458 1.373.17.455.347.888.61 1.22 1.812-.28 3.804-.153 5.79-.153h6.097v15.088c-2.618-.826-5.3-1.826-7.317-3.2-1.03-.704-1.793-1.454-2.438-2.286-.57-.737-1.037-1.38-1.22-2.44-.537-.02-.682-.435-1.22-.456.167 1.368.648 2.348 1.22 3.202.348.517.79.943 1.22 1.37.4.4.78.892 1.22 1.22.13.1.338.062.457.153.114.088.162.213.304.305.867.556 1.578.948 2.438 1.37.563.277 1.188.51 1.83.763 1.31.517 2.74 1.224 3.81 1.22.69-.003 1.567-.456 2.44-.763.866-.304 1.73-.572 2.437-.914 4.447-2.153 8.127-5.746 8.23-11.43-.467-.04-.684-.332-1.066-.46-.394 7.736-5.49 10.768-12.04 12.347V34.445c3.014-.102 6.627.134 9.45 0 .28-.014 1.028.25 1.067-.305-3.15-.457-7.366.152-10.516-.305v-6.25c0-2.218-.125-4.273.153-6.248h5.943c2.117 0 4.07-.124 5.944.152.1 3.517-.198 7.41.153 10.516-.05-.608.796-.322 1.066-.61.102-1.93-.202-4.266.153-5.944.43.587-.226 2.258.458 2.59.108-.314.516-1.532.61-1.218-.097.72-.335 2.1-.154 2.59.484-.48.714-1.216 1.068-1.83.02.99.035 1.968-.305 2.593.792-.122 1.12-.71 1.218-1.524.682.967 1.098-.214 1.83-.457-.012-.877-.03-1.76.152-2.44.086.002.174-.122 0-.15-.033.118-.126.176-.304.15-.948.034-1.724-.918-2.438-1.524-.795-.672-1.703-1.26-1.828-2.285-.108-.868 1.006-2.23-.46-2.59-.708-.135.104.5-.304.456-.09-.468-.37-.748-.914-.762-.538.073-.833.386-1.22.61-.31.493.867.215.306.458-.422-.09-.614.12-1.068 0-.196-.054-.348-.385-.608-.457-2.07-.57-4.51-.71-7.01-.914-4.03-.327-8.66.052-12.195.915-.68.212.02.51-.915.458-.367-.14.092-1.11-.61-.914-1.238-.29-1.833.928-2.286 1.524-.534.7-.927.91-1.525 1.37-.333.257-.69.46-.913.764m9.448-3.506c4.748-.73 11.647-.606 16.156.61-1.593.28-3.206.152-4.877.152h-14.632c.933-.467 2.17-.58 3.352-.762m-5.486 1.98h11.735v12.65H184.98V21.795c-.013-.215-.026-.432.152-.457m11.278 36.12c.303.003.193.417.61.307.554-.005.67-.448.61-1.068-.524-.374-1.45-.097-1.22.762m5.03-14.174c-.013-.004-.014-.01-.024-.014-.014 0-.01.005.023.014m16.463-33.377c.066-.695.53-.993 1.37-.915.505.54 1.257 1.546 2.288 1.066.53.95 1.787.122 2.744.154.334.325.58.74.457 1.523.628.068.472-.645 1.22-.456.19-.41-.207-.382-.305-.612-.07-.16.06-.447-.152-.456-.046.355-.413.355-.458 0 .002-.303.416-.195.305-.61-.35-.32-.7.23-.915-.306-.337.22.193.373-.15.457h-.46v-.61c-.636-.095-.602.57-.913 0-.012.266.034.475.15.61-.204.21-1.062.292-1.065-.15.416.11.306-.305.61-.307.18-.407-.2-.832-.153-1.065.004-.02.287-.113.305-.153.094-.2-.083-.558.303-.457.004-.36-.262-.448-.15-.914-.144-.163-.564-.047-.46-.457-.277.2-.652 0-.912.15-.124.072-.077.727-.458.458.16.35.097.92.305 1.22-.855-.024-.17 1.348-.457 1.524-.48-.275-1.054-.573-.304-.915-.49.133-.477-.235-.61-.456-.49-.133-.316.395-.61.457-.002-.202-.267-.14-.305-.305-.06-.262.227-.39 0-.456-.275.55-.42-.27-.76-.154-.39.195.14.747-.154.763-.152 0-.18.123-.303.152.008-.263-.118-.39-.306-.456.24.697-.633.28-.61.762.584.026.24.98.916.915m-10.517 7.467c-.317-.26-.228-.2-.61-.304-2.238-.61-4.87-.732-7.315-.914-3.787-.284-7.227.105-10.516.61-.47.07-1.033.043-1.372.152-.7.223-.83.24-1.067.76-.115.254-.58.35-.458.764.81 1.132 2.328.53 3.658.305 1.36-.23 2.91-.544 4.42-.61 1.966-.087 4.014-.1 5.945 0 1.493.077 2.942.383 4.268.61.635.107 1.504.317 2.132.303.043 0 .216.18.458.154.572-.062.596-.587 1.067-.762-.128-.524-.288-.802-.61-1.068m-20.423 1.373c-.28-.44-.248-.477-.152-1.068.348.16.92.096 1.22.303-.293.318-.586.637-1.068.764m3.658-1.068c0-.902 1.576-.912 2.286-.61.132 1.072-1.756 1.14-2.286.61m7.62-.153h-2.44v-.915h2.44v.915zm2.896-.457c.71-.302 2.287-.292 2.287.61-.53.53-2.42.462-2.287-.61m5.945 1.524c-.59.082-.626-.388-1.067-.457.145-.415.77-.35 1.22-.458.065.59.168.54-.152.914m3.506 31.397c-.49-.356-1.093.35-.915-.61-.785.286-.57.24-1.066 0-.575-.01-.71 1.21-1.372.61.056-.71 1.506-.826.915-1.676-.692.732-.216-.995-.76-.914-.462.25-.17 1.252-1.068 1.065-.078.74.474.848.456 1.526-.283-.02-.51-.1-.61-.304-.015-.626-.03-1.25.153-1.677-.997-.185-.423 1.204-.916 1.523-.495.01-1.41-.654-1.372.153.316.345 1.323 0 1.525.457-.026.228.055.563-.153.61-.66.05-.375-.845-1.066-.762-.155.842-1.13-.038-1.372.763.418.39 1.463.353.76 1.066.71.097.945-.278 1.22-.61.096.31.77.043.61.61-.628.03-1.05.27-1.218.76.18.025.432-.025.456.154-.226.18-.68.132-.61.61-.047.476.44-.388.458.152-.127.33-.395.52-.304 1.067.67.06.625-.594.914-.914.302 0 .193.415.61.304v-1.22c.195.008.21.195.457.152.232-.6-.45-1.06-.154-1.22.263-.008.39.118.458.306 0 .61-.305.914-.305 1.524.927.116.598-1.027.912-1.524.61-.05.847.272 1.525.15-.033-.285.172-.334.153-.608-.748.083-2.16.032-1.524-.76.516-.052.8.914 1.218.455-.39-.626.49.077.915 0-.29-1.054 1.19-.332 1.066-1.22m-3.962 1.22c-.547.09-.464-.452-.458-.914.403.054.548.365.458.913m10.973-33.38v2.135c.262.062.39-.226.457 0 .188.78.253 1.678.914 1.982.376-.54 1.05-.78 1.374-1.372.215.036.256.25.456.305.214-.75.428-1.503.762-2.134-.516.043-.875.243-1.524.153-.085 1.03-.41 1.825-1.068 2.286-.486-.658-.23-1.69-.152-2.592-.54-.12-.758-.563-1.22-.763m-.61-2.59c-.18.46-.37.91-.152 1.372.13.33.973-.057 1.07.306-.09.596.128.885.303 1.22.69.173 1.593.077 1.523-.915-.15-.36-.653-.363-.914-.61.074-.393.614-1.1.305-1.372-.128.227-.382.33-.76.306-.215-.294-.405-.613-.457-1.067.568-.013 1.052.063 1.37.304.494.187.116-.494.61-.305-.24.622-.5 1.225-.458 2.132.49-.133.317.396.61.458.042-.354.408-.35.61-.152.24-.676.18-1.65.61-2.134-.027.892 1.393.333 1.524 1.066-.36.047-.284.53-.763.457-.522.064-.458-.456-.762-.61-.283.328-.103 1.118-.153 1.677-.38-.22-.6-.37-1.066-.15-.05.356-.24.57-.153 1.064.676.63 1.755.49 1.982-.456.42.182.636.33 1.067.15.192-.415.24-.976.456-1.37.77.11 1.154-.168 1.524-.456v-.915c-.17-.03-.237-.168-.304-.304h-1.372c-1.442-.895-3.217-1.458-5.64-1.372-.37-.24-.65-.57-1.37-.457-.206.303-.29.726-.458 1.067.28.482.775.75 1.22 1.067m1.828-2.133c.847.085 1.998.273 2.59.457.962.298 1.78 1.1 2.745 1.067.16-1.26.81-2.036 1.373-2.895-.378.232-1.182.038-1.524.304.033.602-.12.58.15.914-.074-.093.26-.17.154.153-.634.075-.84-.28-1.22-.457.138-.27.534-.278.762-.456.04-.55-.283-.736-.304-1.22-.54.02-.682.436-1.22.456-.1.558.33.585.304 1.068-.566-.094-1.255-.066-1.22-.763.3-.046.304.206.458.304.137-.27.368-.445.458-.76-.323-.34-.65-.673-.916-1.068-.306.405-1.023.398-1.37.76-.132-.476-.38-.84-.762-1.065-.145.465-.74.478-.762 1.066.047.36.53.284.456.762-.45-.33-1.31.426-1.22-.61.255.553.554.023.612-.457-.28-.433-.838-.585-1.22-.915.272 1.143.322 2.176 0 3.2.47.398 1.085.095 1.676.154m1.22-1.98c.494.107.106.86.762.456-.324.794-.667-.01-1.372.305-.115-.573.582-.333.61-.762M202.66 37.95c-.174.48.24.37.305.61-.187.018-.36.045-.304.304.18.024.433-.026.458.153-.482.18-.53.79-.915 1.067.437-.97-.92-1.123-.61-2.44-.56-.002-.673.446-.913.763.612-.022.403.39.304.762.41-.122.177.284.305.457.044.057.245.084.304.152.1.114.125.27.153.456-.627.21-1.245-.367-1.525 0 .204.105-.076.406.152.762.314.16.324-.3.61-.305.012 0-.016.288 0 .305.314.314 1.147-.357 1.372 0 .288-.017.106-.504.456-.457.44.485.625.727.61 1.373-.246.31-.494.623-.61 1.067.224.132.484.227.458.61-.41.483-.75.445-1.523.304.034.29-.173.335-.153.61.307-.06.293.227.457.305-.013-.008.152-.242.306-.154.118.067-.06.292.152.305-.02 0 .063-.29.153-.304.017-.002.143.274.305.153.035-.12.004-.303.153-.307.307.247.54-.412.915-.305.218-.676.042-.805-.306-1.218.463.005.147-.768.61-.763.18.176.54.173.915.153 1.1-1.07-.435-2.185-.152-3.81.31-.085.298-.46.61-.153-.318.457-.49 1.6.152 1.982.033-.83.758-.97.61-1.983-.823-.907-1.655-.355-1.83.61-.1.546.467 1.53.458 1.828-.43.03-.65.266-.61.763.23.295.642-.267.762.305-1.068.612-1.197-.903-1.372-1.677.61-.303.444-1.384.458-2.286-.664-.21-.85.046-1.677 0m-1.066 5.334c.262-.005.476-.163.762 0 .032-.17.17-.237.306-.305v-.915h.608c-.08-.58-.543-.777-1.22-.762-.184.272-.026.886-.303 1.067-.57-.04-.867-.354-1.22-.61-.268.53-.133.58-.306 1.067.66-.36.486.12.764.306-.035-.025.17-.23.305-.154.113.065-.017.23.128.29.044-.005.24.013.176.014m2.744-16.765c.475-.308.95.173 1.37-.305.127-.512-.642-.263-.914-.306-.48-.076-1.078-.332-1.37 0v.762c.815.92 2.43.166 3.2-.305-.026.38.234.477.457.61.015-.24-.02-.53.306-.458.19.062.312.195.305.456-1.374.455-4.06.41-5.64.153.255-.304-.013-.195 0-.61.46.153.27-.34.306-.61-.625.194-1.147-.314-1.676 0-.272.365.288 1.087 0 1.524.32-.002.79.612.456.763-.253-.714-1.323-.607-1.675-1.22.05-.354-.025-.586-.152-.762-.75.115-.685.352-.763.914.18.022.434-.027.457.15.258.42.386.623.763.917-.004-.005-.004-.15 0-.154.168-.168.278.438.305.457.116.088.28-.276.304 0-.4.358-1.04.026-1.523 0-.136.447-.136.47 0 .915.514-.073.84-.124 1.067-.153.148-.018.192.17.304.153.077-.012.136-.31.307-.305.054 0 .104.257.305.152.115-.06-.06-.302.152-.304.03 0 .172.368.305.304-.042-.497.473-.44.61-.762.968.005 1.338-.59 2.132-.762-.105.507.316.246.457.153-.295.163-.212.703-.458.915-.688.13-.762-.356-1.22-.457.048.367-.665.738-.15 1.067.937-.398 2.192.536 2.59-.61 0 0-.148.006-.152 0-.3-.3-.054-.893.152-1.067.254.204.05.864.305 1.067.74.29 1.49-1.175 1.675 0-.514.01-.648-.274-.913.153.25.002.083.422.304.457.22-.138.795-.228 1.218 0 .2-.768-.02-.996.153-1.524-.347.043-.572-.035-.61-.304.473-.188.86-.463.915-1.067-.787-1.836-2.63.6-3.962 0m1.828 1.218c.066-.34.75-.06 1.066-.152-.296.363-.717.606-1.066.152m2.134 2.592c-.97-1.65-2.88.672-4.116.152.416.11.307-.303.61-.305.235.417.894-.007.915-.305-.863.025-1.5-.558-2.287-.152-.25 2.058 2.432 1.014 3.2.61.153.2.145.566.458.61.026-.23-.054-.563.152-.61.22.085.372.237.46.457-.227.078-.386.225-.61.305-1.628-.1-3.658.202-5.03-.153.712-.02-.166-.222 0-.61.273.02.355-.15.304-.458-.25-.086-1.274-.32-1.83 0 .022.49.47 1.01.154 1.37.49-.135.214.5.456.612.263.06.39-.227.457 0-.194.007-.21.195-.457.152-.308-.657-1.414-.516-1.675-1.22.07-.478-.19-.62-.458-.762.237.542-.517.092-.457.458.26.062-.032.197 0 .457.814-.098.72 1.336 1.372.914-.072.654.41.195.457.457-.276.365-1.193.087-1.524 0-.154.406-.158.777.152 1.068.167-.646.52.004.61 0 .024 0 .19-.287.305-.305.178-.028.222.164.457.15.338-.014.642-.502.915-.15.188-.32.442-.573.76-.762.956.092 1.102-.625 1.982-.61.002.203.267.14.306.306-.536.042.275.674-.154.61-.707.15-.92-.198-1.37-.305-.018.187-.046.36-.306.305-.013.417.255.307 0 .61.527-.345.547.127.762.153.014 0 .183-.367.305-.305.075.038-.03.365.153.305.225-.454.588-.16 1.066-.154.74-.42-.082-1.203.306-1.676.292.216.275.74.457 1.067.828.17.803-.518 1.524-.456.008.193.196.21.152.455h-.913c-.036.29.17.336.15.61.682.34.764-.413 1.372 0 .06-.21-.225-.457 0-.457.23 0 .075-.7 0-1.067-.667-.206-.783-.018-1.372.154-.036-.218-.25-.257-.305-.457.774.27 2.213.008 2.135-1.067m-21.185-6.707v7.925h7.62v-7.772c-2.24-.35-5.127-.055-7.62-.153m6.858.305c-.065.294.105.55.153.305.48.434.252 1.577.304 2.438-.887-.148.013.912-.61.764.064.52.412.193.153.762.067.187.195.312.457.305v2.134c-.18-.06-.077.267-.152.305-.062.03-.228-.23-.305-.153-.103.104.08.516-.304.61-.65-.062-1.572.147-1.983-.154.254-.228.733-.125.915 0 .02-.23.334-.177.458-.304.318-.332.352-.825.61-1.22-.082-.122-.16-.248-.154-.458-.495-.088-.71.104-1.066.154v-.61c.467.355 1.33.09 1.37-.458-.143-1.126-1.216-1.323-1.218-2.592.36-.047.09-.722.608-.608-.25.398.023 1.33.154 1.828.355-.457.7-.927.61-1.828-.154-.355-.525-.492-1.068-.458-.898.285-.75 2.26 0 2.59-.065.292-.435.276-.304.763.21.744.628-.247.914.153-.66 1.145-1.635-.34-1.83-1.066.35-.82.456-1.205.306-2.287-.313-.353-1.316-.105-1.677 0-.18.4.733.392 0 .456-.027.332.125.484.457.456-.256.355-.57.65-.608 1.22-.377-.74-1.1-1.136-1.22-2.133-.53-.073-.533.38-.762.61.558.13.292.625.457.914.126.224.425-.127.304.304.11.143.55.07.61.61.177.027.27-.032.305-.15.193.142-.667.98-1.526.76-.29.016.12.57.152.763.268.15.387-.302.458-.305.098-.004.324.3.305.305.056-.012.235-.373.303-.305.248.25.192-.256.457 0 .156.02.31-.658.458-.152.18-.026.128-.278.152-.458.295.215.933.083.763.763-.177-.128-.41-.2-.763-.152-.76.277-.053.838-.305 1.22-.69.08-.913-.307-1.37-.457-.29.017-.107.503-.46.457.087.142.425.232.154.305.033.195.453.2.456 0 .18.025.128.278.153.458.092-.106.456-.238.456 0 0 .25.573-.114.914.152.54-.38.644-.706.458-1.525.216.014.43.026.456-.152.34.023-.197.384 0 .762.01.55.803.315 1.068.61-.048.51-.87.247-.915.762-.135-.043-.326.052-.457 0-.043-.017-.196-.31-.152-.306-.39-.02-.156.644-.763.305-.142.11-.23.275-.305.456-.744-.018-1.606.083-2.133-.153.078-.564.26-.382-.305-.304-.14-.59-.268-1.437-.15-2.135.06-.382.328-.34.455-.61.106-.223-.394-.75.152-.457.174-.307-.274-.225-.306-.304-.086-.215.153-.242.153-.304-.002-.31-.43-.468-.456-.61-.12-.652-.11-1.803.152-2.287-.023.042.728.336.305-.305.696.063 1.287-.086 1.83 0 .38.06.307.324.608.457.088.04.58-.398.61.153.182.054.075-.26.153-.305.152-.088.32.144.305.152.393-.193.33-.4.61-.457.554-.108 1.225.08 1.98 0m14.937 11.278c-.558-.1-.585.33-1.067.305.02-.272-.152-.356-.458-.304-.032.12-.127.177-.304.153-.21.347.394.572 0 .608h-2.895c.235-.643-.847.034-.61-.61-.57-.032-.198.513-.61.458-.044-.005-.163-.372-.304-.305-.088.043.077.54-.152.458h-2.896c.048-.206.217-.29.153-.61-.12-.034-.302-.003-.304-.152-.478-.173-.37.24-.61.305-.318-.086-.435-.376-.914-.304-.007.464.322.593.457.916-.333.02-.327.383-.304.76.2.374.565-.167.608.153v3.81c-.603-.086-.13.354-.153.458-.053.255-.43.073-.456.458.642.054.236.36.455.762-.036-.065.152-.188.153 0v4.573c-.264-.012-.473.034-.61.15.042.854.4.8.153 1.678.48.072.403-.41.762-.458.336.352.507.248.915 0 .13-.484-.24-.47-.305-.76 1.592-.558 3.065-1.308 4.267-2.134.475-.326.818-.742 1.372-.915.2.003.14.268.305.305-.04-.494.557-.357.762-.608-.544-.384.77-.48 0-.763 1.113-1.732 1.884-3.806 1.827-6.707.226.176.385.176.61 0 .12-.527-.17-.643-.304-.915.3-.105.406-.407.457-.762m-2.44 7.468c-.41.738-.753 1.203-1.523 1.83-1.48 1.206-3.742 2.383-5.793 3.2-.276-1.73-.152-3.516-.152-5.487v-5.944h8.84c.266 2.796-.446 4.737-1.37 6.4m-6.86-5.79c-.095 3.545-.05 6.328 0 9.907 4.415-1.43 7.88-3.805 7.774-9.755-2.54-.418-5.01-.166-7.773-.152m4.876.152c.796-.034 1.522.003 2.134.152-.08.565-.26.384.304.306.405 1.963-.52 3.824-1.22 5.182-.616-.21-.48.33-.914.304-.177.38-.532.586-.456 1.22-1.37.664-2.383 1.68-4.117 1.98.22-.268.142-.347-.303-.305.025-.177-.034-.27-.152-.304v-2.744c-.193-.362.378-.386.456-.61-.036.105-.004-.6 0-.456-.026-.617-.09-.8-.455-1.22.017-1.048-.082-2.214.152-3.047.565.078.383.26.304-.306.626-.107 1.37-.242 1.983-.152.388.058.326.324.61.458.19.088.773-.433.457.152.474-.416.8-.085 1.22-.61m3.81-22.86c.183-1.404.62-2.15 1.067-3.354-.688.075-1.037.488-1.676.61-.307.567.244 1.047-.152 1.524-.04-.822-.55-1.176-1.525-1.066-.76.596-.352 2.123.306 2.59-.092-.648.05-1.066.76-.914.165.625.075.803 0 1.372-.268.088-.894-.184-.915.152.204.153.46.25.61.457-.964.153-1.388-.237-1.675-.762.477.072.43-.383.61-.61-.304-.153-.24-.673-.764-.61-.216.038-.256.252-.457.306-.09.546.176.736.304 1.066-.663.282-1.848.248-1.98-.457.43-.027 1.045.13 1.067-.306-.093-.21-.587-.024-.61-.305-.03-.438-.018-.832.458-.763.518-.01.233.783.76.762-.004-.718.5-.925.916-1.22-.28-.178-.516-.398-.76-.61.35-.12-.08-.716-.306-.762.04.497-.182.733-.61.762-.002-.2-.268-.14-.305-.304v-.61c.38-.018.472-.286.762 0-.02-.488-.346-.67-.915-.61.05-.354-.024-.585-.152-.762-.572-.116-.333.582-.762.61-.378-.023-.74-.028-.763.305.094.21.586.022.61.302.03.438.02.834-.457.764-.517.01-.233-.784-.762-.764-.072.54-.257.964-.763 1.068-.113.572.585.332.612.762-.243.23.003.642.304.762-.04-.497.18-.733.61-.762.002.202.268.14.305.305v.61c-.378.016-.47.285-.76 0-.11.717.76.46 1.066.762-.583.52-1.73.598-2.135-.154.087-.372.59-.325.46-.914-.274-.53-.947-.53-1.22 0-.163.568.378.434.305.914-.25.166-1.048.565-1.372.153.037-.218.252-.26.305-.46-.437.033-.775-.037-.915-.303-.123-.406-.338-1.377.762-1.22 0 .405.06.87-.152 1.067 1.487.032 2.117-3.006-.152-2.592-.292.318-.48.74-.762 1.068.056-.76.533-1.093.457-1.98-.326-.386-.625-.798-.914-1.22-.205.555-.77.752-.912 1.372-.126.74.67 1.353.304 1.828-.003-.556-.433-.684-.61-1.068-2.415-.514-1.434 2.977-.153 2.44-.25.025-.25-.94 0-.914 1.04-.004.648.834.61 1.37-.268.14-.762.053-.914.306.19.062.31.197.303.457-.646.038-1.208-.01-1.373-.456.88-.657-.49-1.778-.913-.762-.16.668.516.5.457 1.067-.58.52-1.73.598-2.132-.154.58.164 1.33-.28.914-.61-.042.36-.568-.013-.61-.152v-.61c.21.007.334-.07.457-.152.42.037.346.567.61.762.192-.396.333-.46.15-.914.227-.18.683-.132.61-.61-.504-.104-.69-.528-.76-1.068-.56 0-.225.896-.915.764-.39-.017-.303-.51-.306-.915.347.043.573-.036.61-.304-.18-.175-.54-.172-.916-.153-.18-.226-.13-.68-.61-.61-.262.093.013.724-.304.763-.48-.072-.622.19-.76.456.377-.02.63.08.76.306v.61c-.21-.007-.335.072-.456.152-.42-.036-.348-.567-.61-.762-.11.31-.48.603-.153.915-.387.02-.59.22-.61.61.732-.02.434.988 1.07 1.066.128-.114-.072-.823.608-.763.39.018.303.51.305.914-.24.016-.53-.02-.458.306-.024.432.94-.126.915.305-.24.485-1.61.716-1.982.153.267-.14.337-.476.306-.914-.304-.003-.195-.416-.61-.306-.346.11-.456.46-.61.762.18.228.383.43.61.61-.335.28-1.07.955-1.678.458.382.025.478-.235.61-.458-.267-.088-.894.184-.914-.153-.045-.334-.29-.9.153-1.22.563-.105.674.242.61.763.466-.102.846-1.14.762-1.676-.06-.368-.358-.49-.458-.762-1.124-.21-1.352.478-1.677 1.066-.01-.77.192-.87 0-1.523-.64-.122-.988-.535-1.677-.61.358 1.044.847 1.906 1.068 2.897.028.126.153.46.15.457.014.176-.17.385-.15.457.01.045.26.203.304.306.267.63.208 1.188.305 1.83 6.14-1.61 15.196-1.61 21.338 0 .072-.703.127-1.395.305-1.83.078-.19.255-.268.305-.457-.015.054-.153-.072-.153-.154 0-.122.152-.142.153-.152m-21.49 2.286c-.337-.02-.064-.646-.152-.915.818.33 2.01.49 2.286-.457.726.438 2.23.46 2.44-.457.46.148.81.408 1.218.61.485-.225 1.215-.206 1.37-.76.663.534 2.165.672 2.44-.306.305.203.34.676.458 1.067-3.677.084-7.084.436-10.06 1.22m20.576 0c-3.073-.738-6.47-1.153-10.212-1.22.05-.356.183-.63.304-.914.514.584 1.838.865 2.44.153.335.373.874.547 1.37.76.535-.125.863-.458 1.373-.61.103.732 1.624 1.077 2.134.458.466.196.697.625 1.22.762.7.142.736-.38 1.372-.305v.915zm-21.34 16.004c-.296.02-.72.68-.303.914.43-.606.69-.31 1.372-.153.264-.093-.012-.723.304-.76h2.744c-.082.813.22.12.608.303.095.045.04.556.306.457-.24-.86.51-.237.61-.305.1-.07-.085-.517.15-.456h2.745c-.107.468-.107.292 0 .76.884-.153.986-.342 1.676.154.067-.575-.302-.716-.458-1.067.402.047.5-.21.457-.61-.28-.412-.517-.025-.763-.304.1-.967-.2-2.335.152-3.048.17-.015.238.222.305 0-.27.05-.272-.854.153-.61.01-.33-.252-.28-.306-.608-.042-.265.213-.39 0-.46.067.06-.12.227-.153.154-.23-.51-.143-2.285-.153-3.2.317.33.493-.018.762-.153.038-.444-.287-.526-.458-.76.267-.14.53-.285.457-.763-.59-.133-.542.37-.915.457.046-.4-.21-.5-.61-.457-.412.28-.025.516-.305.762h-2.743c.106-.51-.314-.247-.458-.153-.163-.142-.048-.563-.458-.458.008.778-.57.027-.76.61h-2.745c.05-.355-.024-.587-.152-.763-.568-.162-.493.32-.762.457-.14-.267-.284-.53-.762-.457-.08.54.247.668.457.915-.33-.028-.484.123-.456.456.07.535.656.312.763.458v3.048c-.937-.265.19.662-.61.61-.1.308.28.29.304.457.022.13-.155.45-.152.458.074.1.514-.085.458.153v3.048c-.48-.17-.403-.07-.762.153-.16.57.32.494.457.764m.46-9.45h8.687v9.144h-8.688v-9.145zm21.793-.305c-.817-1.866-2.62.612-3.962 0 .475-.31.95.173 1.37-.306.015-.377-.8-.437-1.22-.457-.404-.02-.83-.04-1.065.152v.762c.816.92 2.43.165 3.2-.305-.025.38.235.478.458.61.015-.24-.02-.53.306-.458.19.06.312.195.305.456-1.438.39-4.02.45-5.64.152.255-.302-.013-.193 0-.61.46.154.27-.34.306-.61-.86-.008-1.192-.196-1.676 0 .015.353-.18.767-.153 1.068.004.033.286.02.305.152 0 .017-.274.142-.152.306.32-.002.79.612.456.762-.253-.713-1.323-.607-1.675-1.22.05-.354-.025-.585-.152-.762-.58-.022-.677.44-.763.914.18.025.434-.026.457.153.29.433.35.632.763.916-.072-.05.596.026.61.304-.503.258-.976.09-1.524 0-.136.446-.136.468 0 .915.514-.073.84-.125 1.067-.153.148-.018.192.17.304.153.077-.013.136-.31.307-.306.054 0 .104.257.305.152.115-.06-.06-.302.152-.304.03 0 .172.368.305.304-.042-.497.473-.44.61-.762 1.002.04 1.288-.64 2.132-.762-.105.508.316.246.457.152-.31.2-.21.808-.61.915-.47-.04-.686-.33-1.067-.457-.204.448-.43.705-.15 1.067.92-.398 2.21.534 2.59-.61-.013.034-.303-.147-.307-.152-.215-.43.22-.87.306-.915.175.18.172.54.152.915.67.348 1.14-.232 1.677-.457.048.206.218.29.152.61-.463.06-.775-.402-.913.152.25 0 .083.422.304.457.22-.138.795-.23 1.218 0 .133-.666.034-.678.153-1.22-.136-.32-.65-.264-.61-.76.662.05.8-.42.915-.916m-2.134 1.218c.066-.34.75-.062 1.066-.153-.328.332-.75.575-1.066.153m8.23 13.26c.304 0 .194.415.61.305.553-.005.67-.45.61-1.067-.523-.374-1.45-.098-1.22.76m.305 8.842c-.208.347.394.572 0 .61-.27-.136-.386-.427-.913-.305-.496.32-1.28 1.154-.915 1.828.242-.302 1.862-.658 1.83.153-.61-.083-.46-.083-1.068 0-.436.53-.664 1.266-.61 2.287.45-.114.737-.514 1.22-.762.175-.09.48-.022.61-.152.03-.03-.034-.294 0-.304.214-.072.74-.09.914.15-1.2-.124-1.536 1.776-.762 2.287.26-.3.356-.762.762-.916.5-.344.938-.603 1.372-1.066.292-.312.344-1.17 1.066-1.067.097.515-.196 1.416.153 1.678.293-.317.48-.74.762-1.066.093-.567-.25-1.57.304-1.678.202.457.155 1.167.153 1.83.394.144.344-.403.456-.61.123-.226.376-.46.457-.763.117-.434-.27-1.19.305-1.37.136.574.045 1.376.304 1.828.526-.54.835-1.3.76-2.438.523-.55.828-1.223.612-2.133-1.137-.54-1.85-1.504-1.98-3.05.218-.49.744-.675 1.217-.913-.085-1.734 1.073-4.337-.608-5.03 0 .466.612 1.105.153 1.524-1.162-.71-1.753-1.37-3.05-.762-.885.416-.812.46-1.218 1.067-.126.19-.41.348-.457.457-.232.54-.502 2.59-.457 2.895.154 1.042.926 1.386 1.524 1.982.788.79 1.6 1.483 1.525 2.743-.726.748-1.54 1.406-2.744 1.677-.606-.156-.785-.737-1.677-.61m.61-9.905c.435-.624-.346-1.115-.76-1.373-.37.556.178 1.282.76 1.372m-4.266 2.59c.17.387.764.352.914.762-.32.19-.573.443-.762.76.556-.173 2.006-.4 2.134.307-.365.002-1.075.434-.762.61 1.5-.685 2.114.83 1.828 2.44-.5.567-.78 1.355-1.676 1.524-.512-.004-1.05-.77-1.37-.458.126.098.475.713.15.762-.81-.102-1.127-.702-1.677-1.066-.21.438.417.773 0 .913-.413.094-1.208-.193-1.37.153.286.22.792.224.914.61.02.338-.99.413-.457.762-.025-.25.94-.25.913 0-.436.38-1.14 1.294-.76 1.98.375-1.045 1.088-1.755 2.437-1.827-.237.628-1.01.716-1.37 1.218.677.12.914-.202 1.523-.15-.023.378.08.63.305.76-.074-.48.275-.538.153-1.066 1.855-2.056 3.22-4.604 2.896-8.84.146-.31.31-.602.456-.914-.477-.072-.4.41-.76.458-.337-.376-.426-1-1.068-1.067.084.628.437.986.457 1.677-1.01-.36-.952-1.79-1.218-2.895-.353.364-.452 1.602-.152 2.132-.324-.234-.68-.438-1.067-.61-.003.36.263.45.152.916-.22.083-.787-.178-.76.153m-.916 3.047c.207.506-.132.69-.153.914-.02.204.304.14.304.305 0-.02-.563.15-.303.457.61.05.846-.272 1.523-.153.294-.27.03-.59.153-.914.06-.16.357-.113.304-.457-.073-.488-.778-.452-.762-1.068-.38-.232-.298.312-.456.458-.266.244-.614-.002-.307.305.38.38-.05.184-.304.152m-19.966 11.736c.06-.62-.65-.47-.762-.914h.456c.1-.812-1.042-.38-1.067-1.068.71-.768.673.53 1.678.305-.596-.89.69-.566.762-1.22-.27-.674-1.296.358-1.22-.61-.775-.014-.715.81-1.372.914v-.914c.46-.2 1.306-.015 1.677-.305-.178-.024-.166-.24-.15-.457-.503.108-.976.245-1.527.305.12-.735-.135-1.89-.76-1.372.287.374.327.995.304 1.678-.486-.09-.472.285-.762 0 .24-.37.567-.65.457-1.372-.875.113-.535-.99-1.22-1.067-.238.37.112 1.33-.762 1.066.013.75.67.856 1.067 1.22-.024.18.026.432-.152.457-.796.084-.498-.924-1.37-.762-.338.22.19.372-.154.458-.14-.268-.283-.53-.762-.457.222.782-.854.266-.915.763.154.405.815.302 1.066.61.027.227-.054.562.152.61.413-.263.894-.71 1.067 0 .367-.195.45-.67 1.067-.61-.01.265.034.474.153.61-.427.182-1.052.166-1.676.15-.087 1.102 1.002.346 1.675.458-.076.743.236 1.893.914 1.374-.195-.385-.92-1.828.152-1.678-.026.433-.28.636-.305 1.07.22.335.372-.195.457.15v.915c.27.284.445-.066.762-.152-.088.647.41.707.762.915.318-.337-.24-.655-.153-1.22.21-.007.335.073.46.153m-1.983-2.438c-.273-.02-.323.186-.61.15v-.76c.217.012.432.025.457-.153.33-.026.068.54.152.763m9.754 10.974c-.2.56-.507 1.017-.914 1.37-.366-.6-.413-1.517-1.526-1.37.22.896.9 1.336 1.22 2.133-.494.572-1.03 1.103-1.22 1.98 1.24.173.86-1.274 1.83-1.37.366.598.414 1.517 1.525 1.37-.256-.86-.962-1.272-1.218-2.132.336-.73.88-1.252 1.22-1.98h-.916zm-20.27-1.372c-.022.554.288.73.61 1.218.81.1 1.303-.117 1.675-.457.777-2.28-2.223-2.4-2.285-.76m13.26 2.742c-.213-.96.41-1.818.762-2.437-.446-.042-.468.344-.914.304-.275-.767-.425-1.724 0-2.44-.608-.048-.413.706-.914.762-.414-.553-1.25-.682-1.83-1.067.172.64.72.905.914 1.525-.438-.03-.774.037-.915.305.932.134 1.373.76 1.523 1.677h-.914c.09.467.752.364 1.066.61.093.564.623.695.458 1.522-1.254.134-2.082-.153-2.592-.762-.212.44.415.775 0 .916-1.294.124-1.794-.544-2.133-1.373-.212.483.375.92 0 1.068-.6-.014-.95-.27-1.374-.46-.015.678.792.532.914 1.07-.02.346-.916.59-.456.913.494-.41 1.405-.273 1.83.153-.14.04-.513.566-.155.61.376-.54 1.137-.694 1.982-.764.138.267.052.76.306.914.437-.98 1.517-1.762 2.742-1.828.336-.018.617.294.916 0-.512-.28-1.078-.576-1.222-1.22m-12.8-3.963c-.04-.62-.57-.754-.46-1.525-.983-.108-.103.7-.912.305-.36.408.3.726-.46.458.08.784.194.402-.304.61-.03.428.658.438-.15.457v.61c.388-.136 1.05-.04 1.523.15.165-.443.32-.9.763-1.066m18.898 5.79c-.13.49-.59.54-.304 1.068-.118.034-.3.005-.304.152.645-.19.98.104 1.37-.152-.455-.176-.07-.865-.76-1.067m.152-2.437c.263-.302.622-1.493-.153-1.524-.03.118-.126.176-.304.15.233.658-.22 1.11.458 1.373m-13.413-1.067c-.17-.588.275-1.338 0-1.525-.037.216-.332.175-.456.307-.253-.558-.195-1.432-.457-1.982-.178.23-.19.624-.457.763-.404-.41-.6-1.026-1.067-1.373.05.56-.13 1.35.153 1.677-.272.084-.632.08-.762.304.607.258.998.73 1.37 1.22-.092.212-.585.024-.608.305.786.233 1.415.617 1.828 1.22-1.335.218-1.837-.398-2.59-.762-.193.464.52.776.152.915-.93.167-1.26-.264-1.83-.457-.145.283.458.51 0 .61-.995.23-1.694-.637-2.133-.458.37.597 1.034.897 1.525 1.37-.204.155-.568.146-.61.46 1.136.118 1.818-.216 2.896-.154.09.316-.188 1 .152 1.067v-.456c.893-.885 2.006-1.55 3.658-1.677-.14-.57-.622-.8-.763-1.37M165.778 18.44c.303.105.35.465.61.61.664.1 1.723-.198 2.134.154-1.058.11-1.272 1.065-2.285 1.22-.47.112-.293-.42-.762-.306.097.998 1.464 1.092 1.982.914.47-.16 1.072-.638 1.37-.304-1.283.234-1.566 2.133-3.048 1.676.263.718.984.82 1.524.762.76-.08 1.15-1.157 1.83-1.067-.9.616-.99 2.708-2.59 2.133.153.54.844.614 1.22.61.874-.01 1.625-.896 1.98-1.372.153-.47-.81-.59-.305-.913.262-.06.39.226.458 0-1.026-1.236-1.26-4.283-.305-5.792-.33-.56-1.183-.18-1.83-.153-.505.02-1.15-.25-1.218.153.28.786 1.477.656 2.286.914-.93-.018-1.508.704-2.286.76-.303.024-.473-.365-.763 0m14.937 31.093c.18.176.538.173.915.152-.526-1.457-2.215-1.75-2.44-3.505-.78-.495-1.357-1.18-1.982-1.83-.636-.66-1.42-1.257-1.83-2.133.054-1.054 1.006-1.418 1.068-2.438.05-.822-.385-1.36-.61-1.83-.445-.934-.972-1.887-1.675-2.287-1.496-.066-2.796.442-3.506.916-.1.066-.2.438-.305.15-.044-.654.717-.5.762-1.067-1.133.087-1.708.752-1.677 1.372.028.585.727.584 1.068 1.22.25.47.11.716.303 1.22 1.702-.23 2.414.532 2.744 1.676-.07.742-.998.627-.762 1.677.694.627 1.836.807 2.134 1.83-.154.65-.69 2.228 0 2.742.048-.97.535-1.498.915-2.135.085 1.07-.847 2.433.152 3.05-.063-.977.284-1.545.76-1.982.165 1.178-.786 2.25.153 2.895.23-.736.25-1.68 1.068-1.83.454.005.196.72.458.916.22.083.786-.178.762.152h-.762c.106 1.316.796 2.05 2.438 1.83.13-.356-.534-.658-.152-.763m-14.327 1.372c.27.034.763-.153.61.305-.207-.048-.29-.217-.61-.152-.142 1.512.59 2.155 1.98 2.133.37-.137-.345-.45-.15-.913.44.116.394.722 1.065.61.355-.272-.17-.397-.304-.61-.554-.872-.903-1.832-1.523-2.44v-.913c-1.02-1.166-1.858-2.513-1.982-4.572 1.244-.788 3.028-1.036 4.268-1.83.538-1.075.88-2.95.304-4.268-1.953-.803-1.204-2.608.458-3.352.686-.307 1.703-.31 2.44-.61.94-.385 1.386-.99 1.98-1.22-.135-1.136-.57-1.97-.762-3.048.393.42.65.977 1.068 1.373-.27.54.154 1.52.914 1.523.725.016.722-.7 1.37-.76 1.43.003 2.385-.462 3.963-.306.285.426.68.744.762 1.37-.248.667-.873.955-.762 1.98.315.356.905-1.113 1.22-.76-.183.885-1.01 1.123-.914 2.287.722.056.752-1.374 1.373-.914-.246.873-1.104 1.13-1.068 2.287.79-.226 1.038-.995 1.83-1.22.2.513.04 1.38.61 1.524-.29.034-.338-.17-.61-.153-.288 1.863.806 2.344 1.98 2.744.11-.466-.263-.448-.152-.914.257.11.7.808 1.067.305-.642-1.34-1.497-2.468-1.37-4.574-1.04-1.552-1.928-3.255-2.136-5.64-.347-.21-.59-.526-.914-.76-1.266.407-2.204-.223-3.2-.306-.487-.04-.77.146-1.22 0 .412-.908-.425-1.647-.305-2.134.32.595.79 1.04.914 1.83 1.11-.136.524-2.25.305-2.897-.36-.048-.284-.53-.762-.458-.314-.144-.13-.785-.61-.762-3.005-.01-5.127.868-6.858 2.134-.05.508-.443.676-.306 1.372-.23.343-.54.623-.762.914-.577.75-.797 1.33-1.22 2.134-.114.22-.357.254-.457.457-.113.232-.03.53-.15.763-.028.053-.264.096-.305.153-.108.142-.043.334-.154.457-.417.46-1.232.575-1.675 1.067-.482.533-.65 1.357-.915 1.982-.135.317-.293.708-.456 1.065-.163.354-.302.86-.457 1.067-1.21 1.606-3.964 2-5.03.153-1.047-1.81.397-4.145 1.83-4.42 1.084-.207 1.455.168 1.675.305.454.282.83.484.915 1.067.07.39-.54.863-.153 1.066.766-.59 1.348-1.235 1.22-2.134-.072-.5-.693-1.216-1.22-1.372-.73-.214-1.713.08-2.438.304-.002-.15.123-.18.152-.304.872-.855 2.044-1.767 2.59-2.59.716-1.078 1.67-2.104 1.83-3.506.343-3-1.642-5.7-1.22-8.536.19-1.267 1.12-2.28 1.982-3.047-.54-.315-.922.284-1.22.458-.394.23-.942.467-1.22.762-.063.068-.105.23-.152.305-.52.847-1.2 1.855-1.22 3.048-.022 1.512.768 2.943 1.22 3.81.383.732.94 2.178.763 3.353-.055.367-.074.884-.61 1.067.227-2.36-.903-3.364-1.523-4.877-.093-.364.19-1.106-.152-1.22-.452.65-.7 1-.763 1.525-.104.896.25 1.496.46 1.83.085.14.05.306.15.457.48.727 1.266 1.545 1.22 2.59-.015.3-.06 1.05-.61 1.22V27.89c-1.316-1.906-4.074-5.256-2.44-8.077-.785.338-1.675 1.644-1.828 2.438-.333 1.74.385 2.976 1.067 3.66.787.785 1.776 1.55 2.287 2.286.452 1.44-.073 2.885-.914 3.505.132-2.05-.96-3.377-2.44-3.2-1.566.19-2.29 2.723-.76 3.66-.298-.967-.234-2.047.914-2.136.923-.07 1.468.94 1.524 1.373.152 1.16-.94 2.13-1.37 2.743-1.053 1.498-1.535 3.25-.61 4.876.108.192.26.562.304.61.108.124.316.054.458.153.124.086.173.373.304.456.504.316 1.277.546 1.83.61 1.363.158 2.302-.517 2.895-.914.84-.562.892-.616 1.525-1.525.214 1.107.87 1.773.915 3.048-.43 1.333-2.252.382-3.048 1.22.012 1.512 1.21 1.838 1.067 3.505-.622.78-1.42 2.103-.763 2.896-.11-.466.262-.45.15-.915.473-.143.878-1.146 1.22-.913-.398.973-1.105 1.638-.914 3.2.4.084.192-.235.306-.457.29-.572.722-.927 1.065-1.37.04 1.026-1.216 2.384-.305 3.2.22-.9.607-1.63 1.37-1.982.13.33.398.52.307 1.067m17.83 9.145c.65.115.952.574 1.526.76.018-.64.903-.416 1.067-.913-.346-.16-.06-.958-.152-1.372-.237-.12-.635.29-.61.305-.01-.007 0-.305 0-.305-.407.102-.36.478-.914.305.073.723-.19.168-.458.458.08.564.26.383-.304.305.006.21-.073.333-.154.457m11.28-2.896c-.262-.197-.6-.315-.61-.762-.424.395-.68-.152-.762-.153-.265-.006-.506.396-.762.152-.026-.23.055-.563-.152-.61-.13.226-.384.328-.763.306-.015-.24.02-.53-.305-.458-.402-.046-.12.59-.61.458-.018-.39-.28-.534-.457-.763-.026.228.054.562-.154.61-.408-.058-.674-1.042-1.066-.61.22.188.29.524.306.914-.704-.314-.79-1.245-1.373-1.677-.26.52.035 1.256-.152 1.525-.327-.64-.6-1.33-.913-1.983v1.677c-.857-.465-.984-1.657-1.22-2.743-.658.517 0 2.052-.305 2.59-.18-.817-.7-2-.305-2.896-.77.092-.4 1.328-.76 1.83-.214-.957-.65-1.69-1.22-2.287.006.758.607 1.725.152 2.437-.01-.656-.576-1.55-.914-1.37.193.405.623 1.712 0 1.98-.076-.39-.452-1.264-.763-.913.255.216.302 1.514-.153 1.524-.6-2.137.676-3.685 1.98-4.42-2.005.33-2.624 2.048-3.2 3.81-.676-2.483 1.072-3.786 2.287-4.876-2.484.41-3.19 2.6-3.657 5.03-.455-1.668.104-3.384.76-4.42-1.4.68-1.59 2.572-1.828 4.42-.754-1.663.112-3.41.762-4.574-1.458.625-1.736 2.43-2.134 4.116.08-2.2.367-4.367-1.066-5.335.57.843.415 2.882.304 3.81-.058.495.017 1.635-.457 1.677.09-2.02-.02-3.84-1.22-4.572.787 1.38.535 3.21.152 4.877-.46-.545-.112-1.67-.305-2.133-.486.58-.497 1.635-.762 2.438-.162-.61-.236-1.21-.152-1.83.107-.8.81-1.393.61-1.828-.758.717-1.195 1.753-1.525 2.896-.526-1.66 2.004-3.945.458-5.64.367 1.094-.135 2.224-.458 2.744-.642 1.034-.873 2.006-1.22 3.2-.16-1.88 1.086-3.673-.15-4.876.295 1.99-.593 3.388-.915 5.182-.04-1.413-.008-2.75.456-3.658-.4-.102-.47.373-.61.61-.554.922-.658 2.303-.915 3.506-.37-.59.032-2.085-.153-2.44-.37.54-.435 1.394-.76 1.982-.077-.64-.282-1.95-.763-1.677.357.62-.006 1.82-.154 2.44-.08-.428-.224-.794-.305-1.22-.01-.334.42-.987.153-1.068-.56.404-.704 1.226-.913 1.983-.413-.604-.494-1.54-.763-2.287-.44 1.278.044 2.747.61 3.506h21.947c2.544 0 4.923.126 7.163-.152m19.66 5.79c-.09-.27.447-.632 0-.76-.215.595-.956.668-1.828.61.055-.265.46-.943.15-1.068-.398.72-1.202 1.03-2.436.915.28-.734 1.237-.793 1.676-1.37-.263.007-.39-.12-.457-.306.318-.546.912-.814 1.372-1.22-.38.023-.634-.078-.763-.305.086-.33.363-1.248 0-1.524-.375.437-.54 1.083-1.067 1.372-.016-.39-.278-.534-.456-.762.013.88-.213 2.44-.917 1.676.444 1.22-.147 2.274-.762 2.895 1.718.164 3.035.726 3.81 1.83.038.165.252.365.307.15-.25.027-.25-.937 0-.912.902-.136 1.862.468 2.59 0-.203-.153-.46-.252-.61-.458.218-.07.43-.032.61-.152.346-.232 1.085-1.162.916-1.22-.486.43-1.152.678-2.135.61M168.673 11.28c-.045.4.21.498.61.455-.097-.705.12-1.1.458-1.372.21.007.335-.072.458-.15.415.187 1.233.39 1.828.304.31-.047.444-.4.61-.154-.21.4-.695.525-.762 1.067.116.522.262.71.61.458-.103.073-.165-.26.152-.153.117.747-1.006.827-1.22.763.128-.33.395-.52.305-1.068-.467-.04-.684-.33-1.065-.457-.19.37-.378.74-.457 1.22.198.31.806.21.914.61-.485.073-.637.48-1.22.457-.007-.196-.196-.21-.15-.457.21-.008.333.07.456.15.1-.554-.103-.81-.306-1.065-.466.223-.794.04-1.22-.153.21 1.06 1.236 1.306 1.07 2.744.178.073.343.16.456.304 1.726-.915 3.548-1.736 6.4-1.524.032-.17.17-.238.305-.306.09-.547-.177-.737-.305-1.066.14-.527.43-1.696.154-2.135-.23.535-.898.63-1.22 1.068-.24-.368-.545-.673-.915-.913-.03.58-.64.578-.61 1.22.028.428.724.188.61.76-.528-.122-.585.228-1.066.152-.007-.194-.195-.21-.152-.457.355.356.49-.282.457-.762-.342-.216-1.004-.113-1.067-.608 1.152.284 1.6-1.276 2.44-1.22.67.044.644.488 1.218 1.066-.062-.672.548-.67.61-1.218-.403.025-.62-.485-.763-.458-.05.01-.02.497-.305.305-.033-.118-.127-.177-.304-.152.047-.206.217-.292.153-.61-.373-.386-.325.32-.915.152-.06.262.226.392 0 .458-.152 0-.18.122-.305.152-.292-.063-.12-.59-.61-.457.163.568-.572.242-.456.762.18.025.433-.027.457.153-.38.125-.6.417-1.066.457.41-.567.292-1.372-.304-1.676.226-.232.245-.67.305-1.068-.41.105-.295-.315-.456-.457-.48.17-.404.072-.763-.15-.393.477-.73.634-.76 1.37.97.392.117 1.78 1.066 2.287h-1.067c.078-.226.225-.384.304-.61-.464.19-.592.116-.915-.152-.078.43-.332.684-.762.762.044-.095.378-.587 0-.61-.12.572-.534.01-.762.305-.175.48.24.37.304.61-.28.41-.516.026-.762.305.426.194-.48.315-.305.762.227.174.385.174.61 0m6.858-.307c.41-.104.296.315.458.457.136-.093.273-.184.305 0-.004.507-1.113.367-1.22.305-.022-.43.46-.354.458-.762m42.524 48.62c.186-.018.36-.047.306-.305-.128-.155-.323.013-.458-.154.038.048.22-.178.152-.304-.07-.134-.375-.144-.457-.305.025.05.216-.23 0-.304-.686.434-.165-.452-.913-.304.016.73-.407 1.016-.61 1.523.732-.02.534.887 1.066 1.066.435-.346 1.143-.08 1.372-.305.133-.487-.396-.314-.458-.607m-1.83 2.133c.304-.612.527-1.014.306-1.524-.508-1.174-2.373-.74-2.286.61.055.855.84 1.37 1.98.914m-18.44 2.438c.304.002.193.416.61.305-.098-.57.72-1.1 0-1.373-.142.417-.47.65-.61 1.067m29.872-8.076c.065-.928-.182-1.546-.762-1.83-.006.916.24 1.55-.304 2.135.13-.553-.143-1.178-.153-1.678-.01-.432.168-.818 0-1.067-.416.55-.52 1.41-.762 2.134-.043-.922-.235-1.696-.763-2.134.15.69.343 1.975-.152 2.44-.02-1.227-.263-2.486-.61-3.202-.15-.312-.39-1.037-.762-.762.437.684.664 2.383.306 3.353.053-1.027-.622-2.123-.762-3.2-.112-.86.094-1.863 0-2.592-1.387 1.413.163 3.882-.305 5.64.113-2.037-1.542-3.044-1.677-4.725-.035-.437.226-.784 0-1.218-1.19 2.057 1.138 3.764.456 5.79-.064-1.458-.644-2.402-1.523-3.048.444.817 1.25 2.587.458 3.658-.034-1.03-.137-1.996-.76-2.437.103.76.266 1.697-.307 2.132.17-1.026-.355-1.994-.305-2.895.044-.783.58-1.394.457-1.982-1.186.743-.957 2.904-1.218 4.572-.237-.842-.585-2.315-.458-3.353.047-.384.457-.636.15-.916-1.047.63-.555 2.797-.913 4.116-.058-1.517-.472-2.677-1.372-3.354.235 1.236.82 2.76 0 3.81.12-1.49-.36-2.382-1.066-3.046.29.688.56 2.27 0 2.894-.132-.6-.123-1.38-.306-1.98-.098-.32-.524-.8-.61-.914-.093-.127-.073-.344-.153-.46-.337-.484-.566-.69-.912-.912-.424-.27-1.078-.655-1.524-.458 1.415.78 3.072 2.736 2.132 4.877-.18-1.918-1.393-3.99-3.047-3.81.57.163 1.142.627 1.523 1.22.503.78.968 2.09.304 3.047-.235-.312-.235-1.365 0-1.676-.67.04-.425.997-1.065 1.066-.186-.85.32-1.804.152-2.133-.49.325-.572 1.056-.915 1.525-.218-.934.397-1.83.15-2.285-.593.574-.82 1.517-1.217 2.285.015-.83-.052-1.574-.46-1.98-.04 1.075-.093 2.14-.608 2.742.222-.822.266-2.128-.304-2.59-.06.474.084.96 0 1.37-.11.533-.887 1.625-1.066 1.372-.096-.464.195-1.313-.153-1.525-.235.68-.29 1.538-.913 1.83.197-.444.193-1.078-.153-1.372-.372.594-.647 1.283-1.22 1.676-.088-.548.177-.737.305-1.068-.672-.01-.606.715-1.22.762-.025-.227.054-.562-.152-.61-.154.304-.264.652-.61.764.046-.3-.206-.304-.305-.46-.49-.133-.208.504-.61.46-.205-.05-.29-.22-.61-.154.044.348-.036.573-.303.61-.292-.73-.675.326-1.22-.15.026.533-.514.498-.61.912h29.11c.48-.734 1.24-2.487.457-3.505-.068.95-.188 1.844-.76 2.288m10.362-22.1c-.09-.7-.683-1.773-.916-2.287-.08-.182-.516-.497-.608-.608-1.45-1.728-4.035-3.51-2.743-6.402.136 2.608 1.704 3.78 3.048 5.182.21.197.153.663.154 1.067.787-.187.768-1.487.61-2.287-.288-1.437-1.566-1.66-2.287-2.744-.288-.434-.517-.987-.61-1.524-.12-.686.084-1.39 0-1.982-.115-.814-.588-1.58-.914-1.98-.377-.463-.532-.586-.915-.763-1.185-.546-2.426-.59-3.505.153 0-.152.123-.18.152-.305.435-.757 1.103-1.745.914-2.896-.153-.933-1.322-2.037-2.134-1.676.747.496.903 1.512.762 2.59-.14 1.08-.88 1.97-1.37 3.05-.493 1.08-.912 2.438-.916 3.656-.012 2.574 1.173 3.79 2.59 5.792-.623-.268-1.11-.544-1.675-.457-1.434.22-1.77 2.34-.153 2.744-.025-.48-.006-.92.305-1.066.243-.067.374-.27.607-.305 1.285-.192 2.333.73 2.744 1.22.233.274.658.53.46.76-1.32-1.217-3.978-.495-4.116 1.22-.07.873.38 1.72 1.524 1.982-.107-.452-.454-.664-.305-1.373.515-.826 1.358-1.39 2.592-1.067.152.04 1.016.7 1.066.762.06.07.183.416.305.61.172.272.304 1.082.306 1.37.01 1.934-1.37 3.143-3.81 2.744-.39-.324-.963-.554-1.22-.763-.41-.336-.47-.508-.762-.914-.162-.228-.38-.44-.456-.61-.33-.726-.296-1.804-.763-2.59-.243-.412-.85-.773-1.067-1.07-1.19-1.592-1.368-4.446-1.525-7.01-1.046.327-1.28 1.465-1.982 2.135-.448-.726-.323-1.73-.456-2.44-.607.36-.998.934-1.37 1.526-.603-.472-.514-1.537-.612-2.135-.24.908-1.334.644-1.98 1.067-.612.4-.92 1.086-1.067 1.83-.604.36-1.01.92-1.676 1.218-.163.443-.675.928-1.068 1.37-.44.5-.807 1.106-1.37 1.22-.53.108-.935-.19-1.677-.15-.47.224-.73.827-.763 1.065-.354-.048-.585.025-.762.153-.264.447-.36 1.063-.305 1.83.23.317.522-.587 1.067-.458.268.087.895-.185.914.152-1.41-.113-1.277 2.205-.304 2.438.007-.51.386-.765.61-1.066.235-.318.452-.85.914-.916-.176.383-.607.51-.61 1.068.39.525.676 1.15 1.373 1.37v-1.37c.392-.575.963-.968 1.524-1.373.297-.668.182-1.75.915-1.982.136.574.044 1.377.304 1.83.26-.147.307-.507.61-.61.116-.647-.28-1.805.305-1.982.054.708.067 1.458.458 1.83.78-.39.09-2.25.762-2.744.163.598.032 1.49.304 1.98.537-.534.935-1.48.61-2.437.658.1.855-.264 1.22-.458.342-.52-.006-1.733.762-1.83-.613.71.058 2.7-1.22 2.745.01.352.198.44.304.61.098.154.23.538.306.61.26.24.723.096 1.067.304.534.322 1.305 1.54 1.524 1.98.283.573.545 1.16.61 1.677.177 1.418-.408 3.394-.305 4.572.088 1.013.627 1.806 1.066 2.44.493.71.712.988 1.067 1.218 1.303.843 1.74-.434 3.05-.61 1.022.45.47 2.477.608 3.81-.335.174-.506.51-.915.61-.47.025-.862-.36-1.22 0-.505.05.403.665-.15.763.045-.402-.213-.5-.61-.457-.77.296-1.198.935-1.22 1.98.64-.154 1.74-.838 2.286-.153-.637-.128-.72.297-1.22.305-.205.46-.205 1.217 0 1.677.55.36.664-.798 1.525-.61.397-.315.357-1.066 1.22-.915-.776.493-1.033 1.856 0 2.286.533-1.142 1.6-1.75 2.283-2.743-.014-.828.054-1.573.46-1.982.593.333.826.998 1.37 1.22-.142-.507 0-1-.152-1.37-.26-.644-1.092-.66-1.218-1.373.496.008.96.34 1.22.458.158.07.488.874.457.152-.026-.432-.28-.635-.306-1.068-.283-.53-1.236-.388-1.22-1.22.76.007 1.278 1.056 1.677.916-.215-.394-.263-.955-.456-1.37-.427-.44-1.24-.49-1.372-1.22.483-1.027.38-2.406-.915-2.44-1.706 1.5-3.25-1.24-3.048-2.59-.032.45.544.66.914.914.678.465 1.325.82 2.133.915 3.032.36 4.724-1.757 4.573-4.574-.06-1.112-.597-2.023-1.067-2.896-.352-.65-.7-1.38-1.068-1.828-.152-.19-.415-.242-.61-.457-1.29-1.44-2.78-3.048-3.2-4.878-.184-.8-.348-1.927-.152-2.895.24-1.19 1.61-2.707 3.353-2.44.816.126 1.997 1.274 1.98 2.287-.02 1.4-1.802 2.65-3.2 1.37-.452-.305.172-1.235-.153-1.37-.9.728-.667 2.57.306 3.047.993.13 1.532-.196 2.134-.458-1.103 5.595 4.848 6.202 3.81 11.735-.102.172-.707.592-.305.762 1.534-.63 2.194-2.175 1.98-3.81m-42.37 29.11c-.286.58.32.937.458 1.525.073-.18.16-.345.304-.457-.13-.48-.283-.937-.762-1.068m10.82-.61c.088.11.682.448.762.458.627.08 1.436-.39 1.372-1.37-.035-.568-.285-.534-.61-1.068-1.718-.437-2.03 1.348-1.524 1.98m-5.638-2.286c-.932.188-1.762.476-2.59.765-.393-.83-.59-1.85-1.22-2.44-.426.795-.567 1.872-1.22 2.44-.627-.39-1.486-.547-2.286-.764.152 1.12.902 1.64 1.067 2.745-.658.51-1.66.677-2.133 1.373.796.27 1.508.624 2.133 1.066-.49.83-.884 1.757-1.22 2.743.965-.206 1.63-.71 2.59-.914.36.91.67 1.87 1.22 2.59.51-.81.66-1.98 1.372-2.59.754.215 1.722 1.018 2.44.762-.522-.8-.938-1.703-1.22-2.744.565-.5 1.76-.37 1.982-1.217-.842-.276-1.564-.674-2.135-1.22.442-.83.836-1.706 1.22-2.592m-1.067 3.507c-.037.27-.262.347-.61.306.043.312.408.304.61.456-.562.282-.45 1.086-.304 1.83-.618-.045-.344.054-.306.455-.722-.47-.62.65-1.37.152-.22.188-.29.525-.306.915-.252-.153-.165-.647-.304-.915-.226.13-.22.492-.305.763-.332.026-.07-.54-.154-.763-.466-.11-.448.264-.913.153.022-.613-.392-.403-.763-.305.218-.223.224-.59-.304-.456-.112-.418.302-.308.304-.61-.608-.293.193-1.088-.61-1.068.016-.392.57-.245.762-.458-.038-.316-.67-.042-.762-.305-.07-.235.403-.057.458-.153.144-.252-.154-.58-.152-.61.018-.413.7-.792 0-1.065.184-.224.665-.148.456-.763.58.724.564-.28 1.372-.154.207-.047.127-.38.152-.61.214-.748.062.395.305.46.2.05.53-.71.458.15.464-.006 1.004-.09.916.458.272.02.32-.187.608-.153-.09.397.062.55.46.458-.056.2-.27.24-.308.458-.155.34.277.27.307.61.025.29-.416.758.305.76m7.773-3.505c.663-.103.844.275 1.066.61.48.073.404-.41.763-.455.284-.172.733-.18.61-.762-.76.266-.1-.05-.458-.46-.21-.005-.336.073-.457.155.204-.445-.046-.705-.306-.458-.257.244.032-.75-.61 0 .245-.423-.657-.42-.61-.152.462.373-.114.992 0 1.523m2.592 3.354c-.3.313-.766.456-1.373.46-.212-.44.415-.777 0-.917-.128.84-1.198 1.54-2.133 1.067-.09-.27.447-.632 0-.762-.262.656-1.607 1.03-2.44.61-.003-.766.298-1.227.762-1.524.195-.212.748-.067.763-.456-.268-.09-.897.182-.916-.154.147-.92.777-1.357 1.525-1.677-.268-.138-.762-.05-.916-.304.238-.47.623-.8.915-1.218-.983.034-1.393.64-2.136.914.028-.346-.514-.888-.61-.61.283.542.302 2.128-.304 2.287-.302-.004-.193-.417-.608-.305.398.854 1.1 1.884.608 2.894-.25.515-.882.493-1.22.915 1.93-.485 3.265.61 3.963 1.83-.024-.483-.004-.922.306-1.07.884.03 1.39.436 1.98.764.043-.466-.49-.595-.153-.916.847-.256 1.46.18 1.982 0-.307-.254-.71-.41-.763-.915.255-.21 1.012-.704.762-.916m-23.168-.61c.677-.036 1.31-.878 1.067-1.828-.193-.06-.312-.197-.305-.457-2.463-1.058-2.5 2.38-.763 2.285m5.64-12.65c-.564-.76-1.666.064-1.068.914.62.326 1.177-.08 1.068-.915m-9.45-9.602c-.116.646-.636.89-.915 1.372.27.288.503.616.458 1.22.672-.064 1.18.04 1.524.304.13-.487-.134-.58-.307-.763.187-.017.362-.045.306-.305-.003-.2-.268-.14-.307-.305.12-.034.302-.004.306-.152-.28-.486-.526.1-.307-.61-.218-.337-.372.192-.456-.152.28-.27-.04-.472-.304-.61m3.2 6.707c.335-.122.607-.305.61-.763-.286-.754-1.215-.66-1.372.153.305.153.24.674.763.61m5.03 7.314v-.76c-.49-.48-1.45-.3-1.22.76.41.328.81.328 1.22 0m-7.317-6.095c-.558-.288-1.218-.086-1.218.608.352.985 1.7.413 1.218-.61m-3.962-5.334c.27 1.548 3.098 1.055 2.133-1.067-1.173-.816-2.31.052-2.133 1.067m-8.84 1.22c.56.05.615.604 1.372.456.5-.21.38-1.04.762-1.37-.653.092-.622-.497-1.218-.457-.545.217-.608.918-1.07 1.22-.507 0-.52-.498-1.065-.46-1.13.312-.45 1.378-.61 2.135-.84-.13-1.12.3-1.22.914.004.86 1.228.5 1.22 1.372-.226.18-.43.383-.61.61-.473 2.047 1.832 2.32 2.44 1.22.35-.64.036-1.24-.457-1.83-.336-.224-1.137.018-1.22-.458 0-.51.495-.52.457-1.066-.208-.41-.536-.59-.305-1.066 1.19.275 1.02-.812 1.524-1.22m1.524-.915c-.176.058-.176.74 0 .303.457.418-.26.95-.914.763-.07-.292.47-.657-.153-.61.006-.636.596-.685 1.068-.457m-2.895 5.18c.018-.005-.016-.303 0-.305 1.116-.06 1.675.99.762 1.983-1.192.174-1.7-.334-1.525-1.525.164.052.237-.288.305-.305.1-.023.257.224.458.153m-.306-1.37c-.266-.13-.53-.57-.457.152-.375-.133-.66-.355-.608-.914.147-.005.117-.188.15-.305.49-.254.66.804.763 0 .4.203.29.676.152 1.067m0-2.286c-.08-.69.224-.995.915-.916.286.09-.18.822.153.458.35.12-.08.716-.306.762-.47.114-.186-.526-.763-.304m8.078-9.603c-.314-.667-1.038-.668-1.676-.304-.22-.39-.145-1.075-.46-1.37-.726-.55-1.123.565-1.675.15-.046.3.207.303.305.46-.12.526.17.643.306.913.56.315.842-.042 1.37-.154.21.198.15.662.153 1.067.275.384 1 .32 1.22.762-.208.354-.615.505-.458 1.22.08.428.72.296.76.76-.03.58-.64.58-.61 1.22.09.32.38.437.307.916-.717-.155-.868.25-1.22.458.065.525-.062.854-.153 1.22.612-.137 1.46.445 1.828-.457.13-.638-.296-.72-.304-1.22.338-.22 1.015-.102 1.22-.457v-1.067c-.218-.24-.795-.12-.763-.61.143-.517.782-.538.61-1.37-.118-.492-.688-.53-1.066-.763-.076-.636.446-.673.305-1.372m-2.286-.304c-.376.02-.735.024-.914-.152-.2-.38.447-.633 0-.762.215-.455.99-.338 1.065.153-.062.52-.41.193-.15.76m1.066 7.47c.217-.223.224-.59-.304-.458.086-.42.16-.855.76-.76-.372.173.23.773.153.15.653.244.2 1.35-.61 1.067m1.983-2.743c.03.59-.243.878-.763.916.043-.62-.056-.344-.456-.305-.022-.375-.025-.733.15-.914.402-.18.393.734.457 0 .417-.11.308.303.61.305m-.914-2.437c.026-.18.278-.13.457-.152.176.18.172.54.153.914-.18.378-.634-.37-.61.306-.123-.08-.247-.16-.458-.152v-.915c.205.016.84.285.458 0m-1.067-1.067c-.497-.573.337-.738 0-1.22.69-.08.995.226.915.916-.603-.198-.31.5-.914.304m4.115-3.658c-.61-.335-1.62.055-1.523.914.497.224 1.036-.64 1.524-.914m-1.675 3.354c.573.064.54-.478.914-.61.162.142.047.56.457.457-.025-.483-.006-.92.303-1.068.016.24-.02.53.306.457.28-.6.147-1.522-.152-1.982h-.763c-.002.81-1.036.588-1.065 1.37.178.025.433-.024.457.154-.233.315-.822.78-.457 1.22m-.306 1.065c.303.002.194.416.61.306.553-.005.67-.45.61-1.067-.523-.374-1.45-.098-1.22.76m24.995 17.834c.685-.11.63-1.593-.305-1.37-.21.246-.54.373-.457.913.237.17.318.495.762.457M183 28.196c-.146-1.06.61-1.22.61-2.134-1.134-.032-1.28 1.563-.61 2.134m10.82 7.164c-1.268-.096-2.787 1.182-4.114 1.066-.568-.05-1.534-.588-1.83-1.066-.344.67-1.153.878-1.37 1.675 1.053.677.596 1.81.61 2.897.016 1.494.94 3.55 1.522 4.266.428.524.662.793 1.22 1.22 1.004.77 2.293 1.407 3.658 1.677-.09.9 1.13 1.14 1.524 1.066.816-.242.58-1.303.61-2.285.06-1.96 0-4.1 0-5.943 0-2.577.138-4.426-1.83-4.572m.153 1.066c-.882-.228-1.857.75-3.2.915-.994.12-1.808.026-2.744-.305-.11.48.23.867.304 1.525.08.7-.077 1.563 0 2.133.197 1.436 1.21 3.128 2.286 3.963.128.1.198.05.304.153.234.222 1.155.542 1.678.76.075.032.25.29.304.305.358.11.87.02 1.22.304.403-2.595.358-5.636.762-8.23.287 2.225-.04 4.7-.153 7.164-.037.8.03 1.637 0 2.438-.093-.212-.586-.023-.61-.305.066-.32-.103-.403-.152-.61-3.52-.92-5.92-2.985-6.248-6.858-.044-.507.083-1.01 0-1.526-.08-.5-.212-.77-.305-1.067-.072-.228-.477-.213 0-.61.5-.388 1.023.22 1.524.305 2.443.36 3.257-.907 5.333-.913.422.34.8.724.763 1.523-.525-.44-.453-.908-1.067-1.067m-5.182 1.828c.38.285.576.712.916 1.068.124.13.182.33.305.457.124.13.183.328.305.455.124.13.183.33.305.458.022.02.145.142.153.152.2.29.26.633.457.915.267.38.778.786 1.067 1.22.106.158.036.183.152.304.123.13.182.33.304.458.236.245.703.995.915 1.523-.606-.048-1.218-.273-1.83-.61-.065-.034-.1-.28-.152-.303-1.147-.517-2.527-2.427-2.744-4.117-.078-.6.125-1.45-.153-1.98m2.593 3.048c-.757-1.077-1.678-2.13-2.287-3.353.247-.043.263.144.458.153.53.84 1.09 1.584 1.676 2.438.5.73 1.08 1.556 1.676 2.44.34.5.92.983.915 1.676-1.01-.967-1.625-2.193-2.437-3.353m.608 0c-.093-.125-.05-.31-.15-.458-.143-.208-.472-.405-.61-.61-.1-.145-.067-.318-.152-.456-.27-.436-1.023-1.085-1.22-1.83.246-.043.263.144.457.153.557.992 1.194 1.844 1.83 2.742.302.428.588.876.914 1.372.286.44.92.83.76 1.525-.59-.79-1.165-1.572-1.83-2.44m-1.675-3.352c.024-.18.278-.13.458-.153.565.832 1.104 1.625 1.676 2.438.543.776 1.29 1.538 1.523 2.592-1.388-1.456-2.275-3.414-3.658-4.877m1.373.763c-.203-.304-.66-.702-.458-1.068.2.054.24.268.458.305.353.717.776 1.342 1.218 1.982.373.537 1.096 1.083 1.067 1.98-.704-.994-1.536-2.077-2.285-3.2m0-1.22c.246-.042.26.145.457.153.383.58.68 1.112 1.065 1.677.308.448.99.867.916 1.676-.912-1.07-1.752-2.21-2.438-3.505m.61-.152c.245-.044.262.145.456.153.34.928 1.28 1.26 1.372 2.44-.695-.78-1.348-1.6-1.83-2.592m.61-.153c.404-.348.968-.348 1.37 0-.216.682.088 1.066 0 1.982-.47-.645-1.074-1.16-1.37-1.983m-18.746-23.47c-.997.194-1.82.62-2.743 1.066.2.004.193.424 0 .458-.59-.552-1.972-.17-2.744 0 .503.593 1.3 1.61 2.44 1.067-.115.498-.763.46-1.22.61-.645 1.734-.708 4.892.913 5.64.383-.33.48-.942.915-1.22.382.127.6.417 1.068.458.293-.317.48-.74.763-1.068.538.02.683.437 1.22.458.395-.164.455-.663.915-.762.426.16.823.894 1.37.457-.172-1.048-1.964-.474-1.827-1.83-1.37.158-2.423-1.304-1.677-2.286-.004 1.345.877 1.927 1.982 1.83.573-.05.906-.827 1.524-.61.454.308.29 1.234.76 1.525.36.238.477-.188.763-.306.256-.107.9.13.762-.458-.35-.316-1.496-.63-.914-1.372.807-.198.472.746 1.22.61.102-.608.33-1.09.303-1.828-1.23-.244-1.49-1.457-3.198-1.22-.327.48-1.328.854-1.83.305.64-1.386 3.78.46 4.116-1.37-.426.14-.906.55-1.22 0 .788-.46 1.642-.912 2.438-1.372.8-.464 1.738-.82 2.134-1.678-1.017.297-2.005.664-3.048 1.22-.908.484-1.79 1.292-2.744 1.524-.794.193-1.69.006-2.438.152m-3.048 12.04c.94-.102 1.663-.77 2.59-1.066 1.32-.42 2.773-.378 4.267-.61.238-.48-.084-.668-.152-1.218-.204-.77.457-1.466 0-1.982-.22.442-.887.433-1.067.914-.465-.144-.476-.74-1.067-.762-.13.48-.575.643-.61 1.22.227.18.682.13.61.61-.502.06-1.51.303-1.066-.305.036.165.25.365.305.152-.292-.017.18-.51 0-.916-.437-.12-.81-.308-1.22-.457-.14.57-.76.663-.914 1.22-.247-.313-.734-.385-1.067-.61-.177.43-.21 1.007-.608 1.22-.277-.14-1.188-.424-1.373-.153.43.485.774 1.053 1.067 1.676-.1.556.103.812.305 1.067m5.486-3.81c.402-.047.393.318.458.61.155-.1.157-.35.457-.306.08.693-.864.357-1.22.612-.415-.414.395-.38.305-.915m-3.81.762c.464-.12.78.975.762 0 .208.046.127.38.153.608-.432.026-.635.28-1.067.306-.386-.373.32-.325.152-.915m-1.524.608c.374.134.88.137.915.61-.65-.163-1.233.833-1.373-.153.476.168.487.156.457-.457m42.675 18.9c-1.036-.9-2.324-.018-2.135 1.066.274 1.567 3.094 1.042 2.134-1.067m-16.157 9.602c.028-.333-.124-.485-.456-.457.033.258-.173.377-.153 0-.583.243-.18.243-.762 0-.178.4-.19.53-.458.15-.036.22-.25.26-.304.458.263.348.63.59.61 1.22.608-.148.914-.148 1.523 0-.05-.708.475-.848.61-1.37-.226-.177-.384-.177-.61 0m4.878-.61c.793-1.057-1.068-1.772-1.066-.457.225.415.59.69 1.067.456m-5.182 4.572c.395-.123.77-.8.763-1.22-.01-.625-.55-1.307-1.524-1.218-.008 0 .01.15 0 .152-1.67.52-.605 2.714.762 2.286m-28.805-29.567c.69.86 1.896.252 1.83-.916-.542-.017-.555-.563-1.22-.457-.484.176-.523.798-.763 1.218-.338.295-.618-.392-1.37-.15-.788.558-.05 1.272-.306 1.98-.557-.1-.81.103-1.067.306-.084.61-.084.458 0 1.066.144.314.785.13.763.61-.11.553-.67.653-.46 1.524.22.085.374.238.46.458.546.126.737-.344 1.066 0 .33-1.024 0-1.67-.762-1.982.03-.58.64-.58.61-1.22-.13-.488-.592-.536-.305-1.066.404-.002.87.058 1.066-.15.445-.457-.094-.988.457-1.22m.305-.458c.02-.49.345-.67.914-.61.083.237-.196.274-.15.457.032.147.63-.056.15.762-.465.11-.555-.155-.914-.152-.003-.224.643-.483 0-.457m-1.98 4.572c.39.115.53.485.457 1.066-.776-.666.086.363-.915.152-.176-.18-.173-.538-.153-.914.178-.377.634.37.61-.304m0-1.068c-.48-.17-.345-.013-.916 0-.157-.432-.157-.635 0-1.066.575-.168.517.66.764 0 .4.203.29.677.153 1.066m.458-1.827c.174-.314-.24-.728-.306-.305-.34-.064-.12-.81 0-.915h.913c-.345.052-.345.75 0 .305.41.32-.13.975-.608.915m43.74 22.25c.302-.594.147-1.4-.762-1.22-.202.256-.403.512-.304 1.068.44.28.475.247 1.065.152m-2.59-3.048c-.122-.335-.306-.61-.762-.61-.602.122-.666 1.434.152 1.373.337-.122.607-.305.61-.763M43.464 35.877c.595.366 1.463.67 2.378.67 1.357 0 2.15-.715 2.15-1.752 0-.96-.55-1.51-1.937-2.043-1.677-.594-2.713-1.463-2.713-2.91 0-1.602 1.326-2.79 3.323-2.79 1.052 0 1.814.243 2.27.503l-.365 1.082c-.335-.183-1.02-.488-1.95-.488-1.403 0-1.937.838-1.937 1.54 0 .96.625 1.432 2.043 1.98 1.738.67 2.622 1.51 2.622 3.02 0 1.584-1.173 2.957-3.597 2.957-.99 0-2.072-.29-2.62-.655l.334-1.115zM56.374 37.218c-.35.183-1.128.427-2.12.427-2.225 0-3.673-1.51-3.673-3.765 0-2.27 1.556-3.918 3.964-3.918.793 0 1.494.198 1.86.38L56.1 31.38c-.32-.184-.824-.35-1.556-.35-1.692 0-2.606 1.25-2.606 2.788 0 1.707 1.098 2.76 2.56 2.76.763 0 1.266-.198 1.647-.366l.23 1.006zM64.452 33.742c0 2.73-1.89 3.918-3.674 3.918-1.997 0-3.537-1.464-3.537-3.796 0-2.47 1.617-3.918 3.66-3.918 2.12 0 3.552 1.54 3.552 3.796zm-5.854.077c0 1.615.93 2.834 2.24 2.834 1.28 0 2.242-1.205 2.242-2.866 0-1.25-.625-2.835-2.21-2.835-1.586 0-2.272 1.463-2.272 2.866zM67.758 27.995v2.12h1.92v1.02h-1.92v3.98c0 .914.26 1.432 1.006 1.432.35 0 .61-.046.777-.09l.062 1.005c-.26.106-.67.183-1.19.183-.624 0-1.127-.198-1.447-.563-.38-.396-.52-1.053-.52-1.92v-4.025h-1.142v-1.02h1.143v-1.77l1.312-.352zM72.803 27.995v2.12h1.92v1.02h-1.92v3.98c0 .914.26 1.432 1.006 1.432.35 0 .608-.046.776-.09l.06 1.005c-.258.106-.67.183-1.188.183-.625 0-1.128-.198-1.448-.563-.38-.396-.52-1.053-.52-1.92v-4.025H70.35v-1.02h1.143v-1.77l1.313-.352zM77.725 28.04c.016.458-.32.824-.854.824-.472 0-.807-.366-.807-.823 0-.472.35-.837.838-.837.506 0 .825.366.825.838zm-1.493 9.453v-7.378h1.34v7.378h-1.34zM79.615 36.12c.396.26 1.098.534 1.77.534.975 0 1.432-.487 1.432-1.097 0-.64-.38-.99-1.372-1.357-1.326-.473-1.95-1.204-1.95-2.088 0-1.19.96-2.165 2.544-2.165.746 0 1.4.214 1.813.458l-.335.976c-.29-.183-.823-.426-1.51-.426-.792 0-1.234.457-1.234 1.006 0 .61.442.884 1.402 1.25 1.28.487 1.936 1.128 1.936 2.226 0 1.296-1.006 2.21-2.76 2.21-.807 0-1.554-.198-2.072-.503l.335-1.022zM85.834 26.67h1.34v4.603h.032c.213-.38.55-.716.96-.944.396-.23.87-.383 1.372-.383.99 0 2.576.61 2.576 3.156v4.39h-1.34v-4.238c0-1.19-.443-2.195-1.71-2.195-.868 0-1.554.61-1.797 1.34-.077.185-.092.383-.092.642v4.452h-1.34V26.67zM104.75 37.158c-.49.243-1.464.487-2.714.487-2.896 0-5.076-1.83-5.076-5.2 0-3.215 2.18-5.395 5.366-5.395 1.28 0 2.088.274 2.44.457l-.32 1.082c-.504-.245-1.22-.428-2.074-.428-2.41 0-4.01 1.54-4.01 4.237 0 2.515 1.45 4.13 3.95 4.13.807 0 1.63-.167 2.164-.426l.273 1.054zM113.04 33.742c0 2.73-1.89 3.918-3.675 3.918-1.997 0-3.537-1.464-3.537-3.796 0-2.47 1.616-3.918 3.66-3.918 2.118 0 3.55 1.54 3.55 3.796zm-5.854.077c0 1.615.93 2.834 2.24 2.834 1.28 0 2.242-1.205 2.242-2.866 0-1.25-.625-2.835-2.21-2.835-1.586 0-2.272 1.463-2.272 2.866zM120.903 35.48c0 .763.016 1.434.06 2.013h-1.187l-.076-1.204h-.03c-.35.594-1.128 1.37-2.44 1.37-1.157 0-2.544-.64-2.544-3.23v-4.315h1.342V34.2c0 1.402.426 2.348 1.646 2.348.9 0 1.524-.625 1.77-1.22.075-.197.12-.44.12-.686v-4.527h1.342v5.366zM123.128 32.416c0-.87-.016-1.616-.06-2.302h1.173l.046 1.448h.06c.337-.99 1.146-1.616 2.044-1.616.152 0 .26.016.38.046v1.266c-.136-.03-.272-.046-.456-.046-.945 0-1.615.717-1.8 1.723-.03.183-.06.396-.06.625v3.933h-1.326v-5.077zM129.727 27.995v2.12h1.92v1.02h-1.92v3.98c0 .914.26 1.432 1.006 1.432.352 0 .61-.046.777-.09l.062 1.005c-.26.106-.67.183-1.188.183-.625 0-1.13-.198-1.45-.563-.38-.396-.517-1.053-.517-1.92v-4.025h-1.144v-1.02h1.144v-1.77l1.31-.352zM132.973 36.12c.396.26 1.098.534 1.768.534.978 0 1.435-.487 1.435-1.097 0-.64-.38-.99-1.372-1.357-1.326-.473-1.95-1.204-1.95-2.088 0-1.19.96-2.165 2.545-2.165.746 0 1.402.214 1.813.458l-.334.976c-.29-.183-.823-.426-1.51-.426-.793 0-1.234.457-1.234 1.006 0 .61.44.884 1.402 1.25 1.28.487 1.936 1.128 1.936 2.226 0 1.296-1.006 2.21-2.76 2.21-.807 0-1.554-.198-2.072-.503l.335-1.022z"/><g><path d="M4.814 52.81l-.107-.93H4.66c-.41.58-1.203 1.098-2.255 1.098-1.494 0-2.256-1.052-2.256-2.12 0-1.782 1.584-2.758 4.435-2.743v-.152c0-.61-.167-1.707-1.677-1.707-.686 0-1.402.213-1.92.55l-.305-.885c.61-.395 1.494-.655 2.424-.655 2.256 0 2.805 1.54 2.805 3.02v2.758c0 .64.03 1.266.122 1.77h-1.22zm-.2-3.765c-1.462-.03-3.124.23-3.124 1.662 0 .87.58 1.28 1.265 1.28.96 0 1.57-.61 1.784-1.234.044-.138.075-.29.075-.427v-1.28zM8.074 47.43c0-.764-.015-1.39-.06-1.998H9.2l.076 1.22h.03c.367-.7 1.22-1.388 2.44-1.388 1.02 0 2.606.61 2.606 3.14v4.406h-1.34v-4.253c0-1.19-.443-2.18-1.71-2.18-.883 0-1.57.625-1.797 1.372-.06.166-.092.395-.092.624v4.436h-1.34v-5.38zM22.905 41.987v8.918c0 .655.016 1.402.06 1.905h-1.203l-.062-1.28h-.03c-.412.823-1.31 1.448-2.515 1.448-1.784 0-3.156-1.51-3.156-3.75-.016-2.454 1.508-3.964 3.307-3.964 1.128 0 1.89.534 2.226 1.128h.03v-4.405h1.342zm-1.342 6.448c0-.168-.015-.396-.06-.563-.2-.854-.93-1.556-1.937-1.556-1.387 0-2.21 1.22-2.21 2.85 0 1.495.73 2.73 2.18 2.73.9 0 1.723-.594 1.966-1.6.046-.184.06-.366.06-.58v-1.28zM30.357 43.664h-3.125v-1.128h7.606v1.128h-3.14v9.146h-1.34v-9.146zM35.934 47.734c0-.87-.015-1.616-.06-2.302h1.173l.046 1.448h.06c.336-.99 1.145-1.616 2.044-1.616.152 0 .26.016.38.046v1.266c-.136-.03-.273-.046-.456-.046-.944 0-1.615.717-1.798 1.723-.03.183-.06.396-.06.625v3.933h-1.327v-5.076zM42.412 43.36c.016.456-.32.822-.854.822-.473 0-.808-.366-.808-.823 0-.474.35-.84.838-.84.504 0 .824.366.824.84zm-1.494 9.45v-7.378h1.34v7.378h-1.34zM44.424 52.81c.03-.503.06-1.25.06-1.905v-8.918h1.327v4.635h.03c.474-.823 1.327-1.357 2.517-1.357 1.83 0 3.125 1.524 3.11 3.766 0 2.638-1.663 3.95-3.31 3.95-1.066 0-1.92-.413-2.47-1.39h-.044l-.06 1.22h-1.16zm1.387-2.957c0 .167.03.335.062.487.26.93 1.037 1.57 2.012 1.57 1.402 0 2.24-1.144 2.24-2.835 0-1.48-.76-2.744-2.194-2.744-.915 0-1.768.626-2.042 1.647-.03.152-.076.335-.076.55v1.326zM59.33 50.8c0 .76.015 1.432.06 2.01h-1.188l-.076-1.203h-.03c-.35.595-1.128 1.372-2.44 1.372-1.158 0-2.545-.642-2.545-3.232v-4.314h1.343v4.085c0 1.4.427 2.347 1.646 2.347.898 0 1.523-.625 1.768-1.22.076-.197.122-.44.122-.686v-4.526h1.342V50.8zM61.554 47.43c0-.764-.015-1.39-.06-1.998h1.188l.076 1.22h.03c.367-.7 1.22-1.388 2.44-1.388 1.02 0 2.606.61 2.606 3.14v4.406h-1.34v-4.253c0-1.19-.443-2.18-1.71-2.18-.883 0-1.57.625-1.797 1.372-.06.166-.092.395-.092.624v4.436h-1.34v-5.38zM74.098 52.81l-.107-.93h-.045c-.41.58-1.204 1.098-2.256 1.098-1.495 0-2.257-1.052-2.257-2.12 0-1.782 1.585-2.758 4.436-2.743v-.152c0-.61-.168-1.707-1.678-1.707-.686 0-1.402.213-1.92.55l-.305-.885c.61-.395 1.494-.655 2.424-.655 2.257 0 2.806 1.54 2.806 3.02v2.758c0 .64.03 1.266.122 1.77h-1.22zm-.198-3.765c-1.463-.03-3.125.23-3.125 1.662 0 .87.58 1.28 1.265 1.28.96 0 1.57-.61 1.784-1.234.045-.138.076-.29.076-.427v-1.28zM77.36 41.987h1.34V52.81h-1.34V41.987zM80.772 51.438c.396.26 1.098.533 1.77.533.975 0 1.432-.486 1.432-1.096 0-.64-.38-.99-1.372-1.357-1.326-.473-1.95-1.204-1.95-2.088 0-1.19.96-2.166 2.544-2.166.747 0 1.402.214 1.814.458l-.335.976c-.29-.184-.823-.427-1.51-.427-.792 0-1.234.458-1.234 1.007 0 .61.443.884 1.403 1.25 1.28.487 1.936 1.128 1.936 2.226 0 1.296-1.007 2.21-2.76 2.21-.808 0-1.555-.198-2.073-.503l.335-1.022zM90.085 51.194c.595.366 1.463.67 2.378.67 1.357 0 2.15-.715 2.15-1.752 0-.96-.55-1.51-1.937-2.043-1.677-.595-2.713-1.464-2.713-2.912 0-1.6 1.326-2.79 3.323-2.79 1.052 0 1.814.244 2.27.504l-.365 1.082c-.334-.183-1.02-.488-1.95-.488-1.402 0-1.936.84-1.936 1.54 0 .96.625 1.433 2.042 1.98 1.738.672 2.622 1.51 2.622 3.02 0 1.585-1.173 2.957-3.597 2.957-.99 0-2.072-.29-2.62-.655l.335-1.114zM98.483 49.365c.03 1.814 1.19 2.562 2.53 2.562.96 0 1.54-.168 2.042-.382l.23.96c-.474.214-1.282.458-2.456.458-2.272 0-3.63-1.494-3.63-3.72s1.312-3.98 3.46-3.98c2.41 0 3.05 2.12 3.05 3.477 0 .274-.03.488-.046.625h-5.18zm3.932-.96c.015-.854-.35-2.18-1.86-2.18-1.356 0-1.95 1.25-2.058 2.18h3.918zM105.37 47.734c0-.87-.014-1.616-.06-2.302h1.174l.046 1.448h.06c.336-.99 1.145-1.616 2.044-1.616.152 0 .26.016.38.046v1.266c-.136-.03-.273-.046-.456-.046-.945 0-1.616.717-1.8 1.723-.03.183-.06.396-.06.625v3.933h-1.326v-5.076zM110.873 45.432l1.448 4.146c.245.67.443 1.28.596 1.89h.045c.17-.61.382-1.22.626-1.89l1.433-4.146h1.4l-2.895 7.378h-1.28l-2.805-7.378h1.433zM119.18 43.36c.015.456-.32.822-.855.822-.473 0-.808-.366-.808-.823 0-.474.35-.84.838-.84.505 0 .824.366.824.84zm-1.494 9.45v-7.378h1.34v7.378h-1.34zM126.51 52.536c-.35.183-1.127.427-2.118.427-2.225 0-3.674-1.51-3.674-3.765 0-2.27 1.556-3.918 3.964-3.918.793 0 1.494.198 1.86.38l-.306 1.038c-.32-.184-.823-.35-1.555-.35-1.69 0-2.605 1.25-2.605 2.788 0 1.707 1.098 2.76 2.56 2.76.763 0 1.267-.198 1.647-.366l.23 1.006zM128.827 49.365c.03 1.814 1.19 2.562 2.53 2.562.96 0 1.54-.168 2.042-.382l.228.96c-.473.214-1.28.458-2.454.458-2.27 0-3.63-1.494-3.63-3.72s1.313-3.98 3.462-3.98c2.408 0 3.05 2.12 3.05 3.477 0 .274-.032.488-.047.625h-5.183zm3.933-.96c.015-.854-.35-2.18-1.86-2.18-1.355 0-1.95 1.25-2.057 2.18h3.917z"/></g><path fill="none" stroke="#000" stroke-width=".635" stroke-linecap="round" d="M168.238 56.986H.318"/></svg>