<svg xmlns="http://www.w3.org/2000/svg" width="100" height="100" viewBox="0 0 100 100" fill="none">
	<rect x="1" y="1" width="98" height="98" stroke="#006DA2" stroke-width="2"/>
	<path d="M32.5 69.1818C31.2625 69.1818 30.2031 68.7145 29.3219 67.7798C28.4406 66.8452 28 65.7216 28 64.4091V35.7727C28 34.4602 28.4406 33.3366 29.3219 32.402C30.2031 31.4673 31.2625 31 32.5 31H68.5C69.7375 31 70.7969 31.4673 71.6781 32.402C72.5594 33.3366 73 34.4602 73 35.7727V64.4091C73 65.7216 72.5594 66.8452 71.6781 67.7798C70.7969 68.7145 69.7375 69.1818 68.5 69.1818H32.5ZM50.5 52.4773L32.5 40.5455V64.4091H68.5V40.5455L50.5 52.4773ZM50.5 47.7045L68.5 35.7727H32.5L50.5 47.7045ZM32.5 40.5455V35.7727V64.4091V40.5455Z" fill="#006DA2"/>
</svg>