<svg width="120" height="120" viewBox="0 0 120 120" fill="none" xmlns="http://www.w3.org/2000/svg">
	<circle opacity="0.5" cx="60" cy="60" r="60" fill="#CFE1E5"/>
	<rect x="30" y="63" width="59.9997" height="5" fill="#006DA2"/>
	<rect x="30" y="73" width="59.9997" height="5" fill="#006DA2"/>
	<rect x="30" y="83" width="30" height="5" fill="#006DA2"/>
	<rect x="30" y="31" width="60" height="27" fill="#006DA2"/>
	<path d="M49.823 46.5652H46.6528V44.5657H49.823C50.3129 44.5657 50.7117 44.4859 51.0193 44.3264C51.3269 44.1612 51.5519 43.9333 51.6943 43.6428C51.8368 43.3523 51.908 43.0247 51.908 42.6602C51.908 42.2899 51.8368 41.9452 51.6943 41.6262C51.5519 41.3072 51.3269 41.0509 51.0193 40.8572C50.7117 40.6635 50.3129 40.5667 49.823 40.5667H47.5415V51H44.978V38.5586H49.823C50.7971 38.5586 51.6317 38.7352 52.3267 39.0884C53.0273 39.4359 53.5628 39.9172 53.9331 40.5325C54.3034 41.1477 54.4885 41.8512 54.4885 42.6431C54.4885 43.4463 54.3034 44.1413 53.9331 44.728C53.5628 45.3148 53.0273 45.7677 52.3267 46.0867C51.6317 46.4057 50.7971 46.5652 49.823 46.5652ZM60.0769 51H57.3682L57.3853 49.0005H60.0769C60.7491 49.0005 61.3159 48.8495 61.7773 48.5476C62.2388 48.24 62.5863 47.7928 62.8198 47.2061C63.0591 46.6193 63.1787 45.9101 63.1787 45.0784V44.4717C63.1787 43.8337 63.1104 43.2725 62.9736 42.7883C62.8426 42.3041 62.6461 41.8968 62.384 41.5664C62.122 41.236 61.8001 40.9882 61.4185 40.823C61.0368 40.6521 60.5981 40.5667 60.1025 40.5667H57.3169V38.5586H60.1025C60.9342 38.5586 61.6947 38.701 62.384 38.9858C63.079 39.265 63.68 39.6666 64.187 40.1907C64.694 40.7148 65.0842 41.3414 65.3577 42.0706C65.6368 42.794 65.7764 43.6001 65.7764 44.4888V45.0784C65.7764 45.9613 65.6368 46.7674 65.3577 47.4966C65.0842 48.2257 64.694 48.8524 64.187 49.3765C63.6857 49.8949 63.0847 50.2965 62.384 50.5813C61.689 50.8604 60.92 51 60.0769 51ZM58.8208 38.5586V51H56.2573V38.5586H58.8208ZM70.2026 38.5586V51H67.6392V38.5586H70.2026ZM75.1587 43.8735V45.873H69.502V43.8735H75.1587ZM75.7568 38.5586V40.5667H69.502V38.5586H75.7568Z"
		  fill="white"/>
</svg>
