<svg width="120" height="120" viewBox="0 0 120 120" fill="none" xmlns="http://www.w3.org/2000/svg">
	<circle opacity="0.5" cx="60" cy="60" r="60" fill="#CFE1E5"/>
	<path d="M82.0833 85.1111C76.2963 85.1111 70.5787 83.8215 64.9306 81.2423C59.2824 78.6631 54.1435 75.0072 49.5139 70.2747C44.8843 65.5422 41.3079 60.2891 38.7847 54.5154C36.2616 48.7418 35 42.8971 35 36.9815C35 36.1296 35.2778 35.4198 35.8333 34.8519C36.3889 34.284 37.0833 34 37.9167 34H49.1667C49.8148 34 50.3935 34.2248 50.9028 34.6744C51.412 35.124 51.713 35.6564 51.8056 36.2716L53.6111 46.2099C53.7037 46.9671 53.6806 47.606 53.5417 48.1265C53.4028 48.6471 53.1481 49.0967 52.7778 49.4753L46.0417 56.4321C46.9676 58.1831 48.0671 59.875 49.3403 61.5077C50.6134 63.1404 52.0139 64.714 53.5417 66.2284C54.9769 67.6955 56.4815 69.0561 58.0556 70.3102C59.6296 71.5643 61.2963 72.7119 63.0556 73.7531L69.5833 67.0802C70 66.6543 70.544 66.3349 71.2153 66.1219C71.8866 65.909 72.5463 65.8498 73.1944 65.9444L82.7778 67.9321C83.4259 68.1214 83.9583 68.4645 84.375 68.9614C84.7917 69.4583 85 70.0144 85 70.6296V82.1296C85 82.9815 84.7222 83.6914 84.1667 84.2593C83.6111 84.8272 82.9167 85.1111 82.0833 85.1111ZM43.4028 51.037L47.9861 46.3519L46.8056 39.679H40.625C40.8565 41.6193 41.1806 43.536 41.5972 45.429C42.0139 47.322 42.6157 49.1914 43.4028 51.037ZM68.2639 76.4506C70.0694 77.2551 71.9097 77.894 73.7847 78.3673C75.6597 78.8405 77.5463 79.1482 79.4444 79.2901V73.0432L72.9167 71.6944L68.2639 76.4506Z"
		  fill="#006DA2"/>
</svg>
