<svg id="Layer_1" data-name="Layer 1" xmlns="http://www.w3.org/2000/svg" viewBox="0 0 420.49 141.62"><defs><style>.cls-1{fill:#fff;}</style></defs><title>SAAS Logo Master White</title><path class="cls-1" d="M271.45,282.34c-4.58-14.84-20.93-18.27-35.7-19.36-7.09-.52-10.82-1.8-10.82-7.21s3.61-7.47,10.82-7.47c5.92,0,11.2,2.45,11.46,8.88h23.17c0-20.21-14.29-30.38-34.63-30.38-19.58,0-35,8.37-35,29,0,20.86,18.16,26.14,35,27.29,5.92.39,12.62,1,12.62,8.5s-6.05,8.25-11.85,8.25c-7.21,0-12.49-3.23-12.75-12.24h-25c.13,22.66,15.58,33.48,37.73,33.48,7.88,0,15.86-1.45,22.31-5Z" transform="translate(-198.79 -226.8)"/><polygon class="cls-1" points="147.34 73 120.28 1.03 99.04 1.03 65.81 89.75 65.81 92.06 87.04 92.06 109.59 32.7 109.72 32.7 119.51 58.33 105.86 58.33 98.19 78.42 127.13 78.42 132.33 92.06 141.07 92.06 141.07 89.75 147.34 73"/><path class="cls-1" d="M469.4,263c-7.08-.52-10.82-1.8-10.82-7.21s3.61-7.47,10.82-7.47c5.92,0,11.2,2.45,11.46,8.88H504c0-20.21-14.29-30.38-34.63-30.38-19.57,0-35,8.37-35,29,0,20.86,18.15,26.14,35,27.29,5.92.39,12.62,1,12.62,8.5s-6,8.25-11.85,8.25c-7.21,0-12.49-3.23-12.75-12.24h-25c.12,22.66,15.57,33.48,37.72,33.48,17.77,0,36.05-7.34,36.18-29.74S486.78,264.27,469.4,263Z" transform="translate(-198.79 -226.8)"/><polygon class="cls-1" points="180.32 1.03 147.1 89.75 147.1 92.06 168.32 92.06 190.88 32.7 191.01 32.7 200.79 58.33 187.15 58.33 179.37 78.42 208.34 78.42 213.61 92.06 234.91 92.06 234.91 89.75 201.57 1.03 180.32 1.03"/><path class="cls-1" d="M541.38,245.24c0,2.17,1.85,3.07,3.86,3.07,1.58,0,3.64-.79,3.64-2.66,0-2.47-2.51-2.58-4.21-2.65-2.71-.11-5.28-1-5.28-4.4s2.94-4.58,5.53-4.58c3,0,5.67,1,5.78,4.65h-2.12c-.11-2.31-2.44-2.62-3.57-2.62-1.46,0-3.41.61-3.41,2.55,0,2.3,2.13,2.26,3.64,2.37,2.91.23,5.89.84,5.89,4.7,0,3.5-3.09,4.72-5.85,4.72-2.59,0-6.09-1.06-6.09-5.15Z" transform="translate(-198.79 -226.8)"/><path class="cls-1" d="M552.47,239.32h1.46v-2.78l1.79-.74h.36v3.52H559v1.79h-2.91v4.94c0,1.22.34,2.42,1.71,2.42a2.5,2.5,0,0,0,1.25-.36l.58,1.67a3.93,3.93,0,0,1-2,.54c-2.41,0-3.68-1.54-3.68-4.27v-4.94h-1.46Z" transform="translate(-198.79 -226.8)"/><path class="cls-1" d="M570,250.07h-1.76l-.32-1.51h0a2.79,2.79,0,0,1-2.87,1.76c-3.12,0-3.91-2.28-3.91-5v-6h2.15v6c0,1.49.29,3,2.17,3s2.41-1.63,2.41-3.23v-5.83H570Z" transform="translate(-198.79 -226.8)"/><path class="cls-1" d="M579.93,250.07l-.21-1.58a3,3,0,0,1-3,1.81c-3.27,0-4.45-2.8-4.45-5.6s1.2-5.6,4.5-5.6a3,3,0,0,1,2.8,1.65v-6.49h2.14v15.81Zm-.23-5.31c0-2.21-1-3.65-2.62-3.65s-2.62,1.8-2.62,3.59.81,3.59,2.62,3.59C578.66,248.29,579.7,246.93,579.7,244.76Z" transform="translate(-198.79 -226.8)"/><path class="cls-1" d="M592.59,247.86a4.14,4.14,0,0,1-4,2.48c-2.67,0-4.56-2.35-4.56-5.64s1.78-5.6,4.6-5.6c3.66,0,4.77,3.52,4.43,6.55h-6.89a2.55,2.55,0,0,0,2.55,2.71,2.12,2.12,0,0,0,2.15-1.27Zm-1.58-4c-.06-1.38-.79-2.76-2.34-2.76a2.52,2.52,0,0,0-2.49,2.76Z" transform="translate(-198.79 -226.8)"/><path class="cls-1" d="M595.51,239.32h1.76l.31,1.52h0a2.76,2.76,0,0,1,2.86-1.77c3.14,0,3.91,2.28,3.91,5v6h-2.14v-6c0-1.49-.3-3-2.17-3s-2.42,1.6-2.42,3.2v5.85h-2.14Z" transform="translate(-198.79 -226.8)"/><path class="cls-1" d="M606.14,239.32h1.47v-2.78l1.79-.74h.36v3.52h2.91v1.79h-2.91v4.94c0,1.22.34,2.42,1.71,2.42a2.43,2.43,0,0,0,1.24-.36l.59,1.67a4,4,0,0,1-2,.54c-2.41,0-3.68-1.54-3.68-4.27v-4.94h-1.47Z" transform="translate(-198.79 -226.8)"/><path class="cls-1" d="M549.19,268.68h-6.77l-1.58,4h-2.42v-.14l6.37-15.83h2l6.35,15.81v.16h-2.4Zm-1-2.12-1.38-4-1-3.43h0l-1,3.43-1.35,4Z" transform="translate(-198.79 -226.8)"/><path class="cls-1" d="M562.92,266.76l.86,3.45.77-3.43,1.62-4.88h2.29V262L564.8,272.7h-2.31l-1.17-3.86-.57-2.53-.58,2.6L559,272.7h-2.3L553.05,262v-.09h2.28l1.63,4.88.77,3.43.86-3.45,1.17-3.34h2Z" transform="translate(-198.79 -226.8)"/><path class="cls-1" d="M577.85,270.58l.07,2.07H576l-.2-1.62a3.35,3.35,0,0,1-3.19,1.89,3.31,3.31,0,0,1-3.54-3.5c0-2.55,1.85-3.32,3.68-3.32h2.91c0-3.07-3.29-3.07-5.21-1.69l-.64-1.69a6,6,0,0,1,3.5-1.06c2.4,0,4.5,1.28,4.5,4.42Zm-2.06-2.65h-3a1.41,1.41,0,0,0-1.54,1.49,1.48,1.48,0,0,0,1.72,1.47C574.17,270.85,575.64,270.35,575.79,267.93Z" transform="translate(-198.79 -226.8)"/><path class="cls-1" d="M582.41,261.9l.23,1.4c.9-2.12,3.72-2.16,5.19-.63l-1.08,1.76c-1.68-1.67-3.87-.54-3.93,1.83v6.39h-2.15V261.9Z" transform="translate(-198.79 -226.8)"/><path class="cls-1" d="M595.76,272.65l-.21-1.58a3,3,0,0,1-3,1.81c-3.27,0-4.45-2.8-4.45-5.6s1.2-5.6,4.5-5.6a3,3,0,0,1,2.8,1.65v-6.48h2.14v15.8Zm-.23-5.3c0-2.22-.95-3.66-2.62-3.66s-2.62,1.81-2.62,3.59.81,3.59,2.62,3.59C594.49,270.87,595.53,269.51,595.53,267.35Z" transform="translate(-198.79 -226.8)"/><path class="cls-1" d="M606.12,265c0-.95-.92-1.42-1.94-1.42-1.22,0-2.08.45-2.1,1.42,0,2.57,6.25-.14,6.25,4.56,0,2.51-2.34,3.34-4.31,3.34-2.14,0-4.18-.95-4.18-3.7h2c0,1.42,1.1,1.85,2.19,1.85.88,0,2.16-.41,2.16-1.49,0-2.71-6.23,0-6.23-4.56,0-2.4,2.1-3.34,4.18-3.34s4,.85,4,3.34Z" transform="translate(-198.79 -226.8)"/><path class="cls-1" d="M549.19,291.26h-6.77l-1.58,4h-2.42v-.14l6.37-15.83h2l6.35,15.81v.16h-2.4Zm-1-2.12-1.38-3.95-1-3.44h0l-1,3.44-1.35,3.95Z" transform="translate(-198.79 -226.8)"/><path class="cls-1" d="M562.79,286.2a2.88,2.88,0,0,1,1.15,2.44c-.12,2.6-2.22,3.43-4.41,3.46a10.09,10.09,0,0,1-2.14-.18.83.83,0,1,0-.18,1.62h2.62c2.23,0,4.6.63,4.6,3.34,0,3-2.71,3.64-4.74,3.64s-4-.32-4.83-2a2.74,2.74,0,0,1,.95-3.71c-2.08-.79-1.79-4,.38-4.15a3.08,3.08,0,0,1-1.08-2.31c0-3,2.64-4,4.58-3.93l4.43,0v1.69Zm-5.4,9.26a1.65,1.65,0,0,0-.7,2.12c.45.95,1.87,1,2.93,1,1.29,0,2.67-.29,2.67-1.67s-1.47-1.49-2.55-1.49Zm-.14-7.09c0,1.36,1.11,1.83,2.24,1.83,1.33,0,2.32-.61,2.32-1.87C561.81,285.71,557.25,285.75,557.25,288.37Z" transform="translate(-198.79 -226.8)"/><path class="cls-1" d="M574.44,293a4.16,4.16,0,0,1-4,2.49c-2.66,0-4.56-2.35-4.56-5.65s1.78-5.6,4.61-5.6c3.65,0,4.76,3.52,4.42,6.55H568c.1,1.47.89,2.71,2.56,2.71a2.11,2.11,0,0,0,2.14-1.27Zm-1.58-4c-.07-1.37-.79-2.75-2.35-2.75A2.53,2.53,0,0,0,568,289Z" transform="translate(-198.79 -226.8)"/><path class="cls-1" d="M577.35,284.49h1.76l.32,1.51h0a2.78,2.78,0,0,1,2.87-1.76c3.14,0,3.91,2.28,3.91,5v6h-2.15v-6c0-1.49-.29-3.05-2.17-3.05s-2.41,1.6-2.41,3.21v5.85h-2.15Z" transform="translate(-198.79 -226.8)"/><path class="cls-1" d="M595.3,288.12a2.21,2.21,0,0,0-2.23-1.87c-1.88,0-2.42,2.17-2.42,3.68,0,2,1,3.54,2.42,3.54.81,0,1.74-.27,2.26-2l1.83.45v.22a4,4,0,0,1-4.09,3.3c-3.14,0-4.56-2.73-4.56-5.53s1.33-5.67,4.56-5.67a4.07,4.07,0,0,1,4.09,3.32v.11Z" transform="translate(-198.79 -226.8)"/><path class="cls-1" d="M597.86,284.49h2.37l1.65,4.33,1.24,3.68h0l1.2-3.75,1.6-4.26h2.3v.13L602,300.11h-2.39l2.35-5.42-4.13-10.14Z" transform="translate(-198.79 -226.8)"/><path class="cls-1" d="M541.38,313c0,2.17,1.85,3.08,3.86,3.08,1.58,0,3.64-.79,3.64-2.67,0-2.46-2.51-2.57-4.21-2.64-2.71-.11-5.28-1-5.28-4.4s2.94-4.59,5.53-4.59c3,0,5.67,1,5.78,4.65h-2.12c-.11-2.3-2.44-2.62-3.57-2.62-1.46,0-3.41.61-3.41,2.56,0,2.3,2.13,2.25,3.64,2.37,2.91.22,5.89.83,5.89,4.69,0,3.5-3.09,4.72-5.85,4.72-2.59,0-6.09-1.06-6.09-5.15Z" transform="translate(-198.79 -226.8)"/><path class="cls-1" d="M559.8,310.7a2.22,2.22,0,0,0-2.23-1.87c-1.88,0-2.42,2.17-2.42,3.68,0,2,1,3.55,2.42,3.55.81,0,1.74-.27,2.26-2l1.83.45v.23a4,4,0,0,1-4.09,3.29c-3.14,0-4.56-2.73-4.56-5.53s1.33-5.67,4.56-5.67a4.07,4.07,0,0,1,4.09,3.32v.11Z" transform="translate(-198.79 -226.8)"/><path class="cls-1" d="M568,306.82c3,0,4.69,2.3,4.69,5.6S570.92,318,568,318s-4.75-2.32-4.75-5.62S565,306.82,568,306.82Zm0,1.92c-2,0-2.53,2.05-2.53,3.68s.58,3.68,2.53,3.68,2.5-2.05,2.5-3.68S569.9,308.74,568,308.74Z" transform="translate(-198.79 -226.8)"/><path class="cls-1" d="M573.94,307.07h1.47v-2.78l1.78-.75h.36v3.53h2.92v1.78h-2.92v4.95c0,1.22.34,2.41,1.72,2.41a2.49,2.49,0,0,0,1.24-.36l.59,1.67a4,4,0,0,1-2,.55c-2.42,0-3.68-1.54-3.68-4.27v-4.95h-1.47Z" transform="translate(-198.79 -226.8)"/><path class="cls-1" d="M584.78,317.82h-2.17V302h2.17Z" transform="translate(-198.79 -226.8)"/><path class="cls-1" d="M595.85,315.74l.06,2.08H594l-.2-1.63a3.36,3.36,0,0,1-3.19,1.9,3.32,3.32,0,0,1-3.54-3.5c0-2.55,1.85-3.32,3.68-3.32h2.91c0-3.07-3.3-3.07-5.22-1.7l-.63-1.69a6,6,0,0,1,3.5-1.06c2.4,0,4.5,1.29,4.5,4.43Zm-2.06-2.64h-3a1.4,1.4,0,0,0-1.54,1.49,1.49,1.49,0,0,0,1.72,1.47C592.16,316,593.63,315.51,593.79,313.1Z" transform="translate(-198.79 -226.8)"/><path class="cls-1" d="M598.65,307.07h1.76l.31,1.51h0a2.77,2.77,0,0,1,2.86-1.76c3.14,0,3.91,2.28,3.91,5v6h-2.14v-6c0-1.49-.3-3.05-2.17-3.05s-2.42,1.61-2.42,3.21v5.85h-2.14Z" transform="translate(-198.79 -226.8)"/><path class="cls-1" d="M617.46,317.82l-.21-1.58a3,3,0,0,1-3,1.8c-3.27,0-4.44-2.8-4.44-5.6s1.19-5.6,4.49-5.6a3,3,0,0,1,2.8,1.65V302h2.15v15.81Zm-.23-5.31c0-2.21-1-3.66-2.62-3.66s-2.62,1.81-2.62,3.59.81,3.59,2.62,3.59C616.19,316,617.23,314.68,617.23,312.51Z" transform="translate(-198.79 -226.8)"/><rect class="cls-1" x="321.59" width="5" height="94.25"/><path class="cls-1" d="M200.87,332.46V344h14.28v1.72H200.87v13.07H199v-28h16.88v1.68Z" transform="translate(-198.79 -226.8)"/><path class="cls-1" d="M234.51,358.77h-1.36l-.28-3.28c-1,2.6-3.4,3.64-6,3.64-5.28,0-7.36-4.08-7.36-8.91V339.78h1.76v10.44c0,3.76,1.28,7.39,5.68,7.39,2.8,0,5.72-1.6,5.84-6.43v-11.4h1.76Z" transform="translate(-198.79 -226.8)"/><path class="cls-1" d="M239.43,339.78h1.36l.28,3.24c1-2.6,3.36-3.64,6-3.64,5.32,0,7.4,4.08,7.4,8.92v10.47h-1.76V348.3c0-3.76-1.28-7.4-5.72-7.4-2.8,0-5.68,1.6-5.8,6.44v11.43h-1.76Z" transform="translate(-198.79 -226.8)"/><path class="cls-1" d="M273.31,358.77l-.16-4.11a6.56,6.56,0,0,1-6.44,4.51c-5.68,0-8.08-4.88-8.12-9.91s2.48-9.92,8.12-9.92A6.29,6.29,0,0,1,273,343.7v-13h1.72v28Zm-6.56-17.87c-4.56,0-6.4,4.36-6.4,8.36s1.76,8.31,6.4,8.35,6.24-4.87,6.24-8.71C273,344.62,270.79,340.9,266.75,340.9Z" transform="translate(-198.79 -226.8)"/><path class="cls-1" d="M279.71,334.46V331.3h1.72v3.16Zm0,24.31v-19h1.76v19Z" transform="translate(-198.79 -226.8)"/><path class="cls-1" d="M286.35,339.78h1.36L288,343c1-2.6,3.36-3.64,6-3.64,5.32,0,7.4,4.08,7.4,8.92v10.47h-1.76V348.3c0-3.76-1.28-7.4-5.72-7.4-2.8,0-5.68,1.6-5.8,6.44v11.43h-1.76Z" transform="translate(-198.79 -226.8)"/><path class="cls-1" d="M318.59,341.34a5.87,5.87,0,0,1,2.84,5.44c0,4.24-3,6.71-7.12,6.71-2,0-3.32-.91-5.08-1a2,2,0,0,0-2,2c0,1.21.92,2.52,3.12,2.52,1.6,0,3.2,0,4.8,0,3.6,0,7.32,1.16,7.32,5.4,0,4.84-5,6-8.12,6-2.32,0-5.48-.48-7.24-2.84a5.22,5.22,0,0,1,1.28-7.56,3.48,3.48,0,0,1-2.76-3.64,3.27,3.27,0,0,1,3.12-3.23,5.47,5.47,0,0,1-2-4.48c0-4.28,3.2-7,7.4-7,2.48,0,5.12.08,7.6.08v1.68Zm-8.52,17.15a3.93,3.93,0,0,0-1.72,6c1.24,2,3.8,2.36,6,2.36s6.4-.72,6.36-4.36-3.48-3.92-5.56-4Zm4-17.15c-3.24,0-5.6,2.12-5.6,5.36,0,3.4,2.64,5.28,5.8,5.32a5,5,0,0,0,5.4-5.24A5.25,5.25,0,0,0,314.11,341.34Z" transform="translate(-198.79 -226.8)"/><path class="cls-1" d="M331.63,339.78h1.92L338,350.66l2.16,5.71h0l2-5.55,4.44-11h1.92v.12l-11.24,27.87h-1.92v-.2l3.8-9.2-7.6-18.47Z" transform="translate(-198.79 -226.8)"/><path class="cls-1" d="M366.71,349.26c0,5.11-2.52,9.87-8.16,9.87s-8.16-4.76-8.16-9.87,2.52-9.88,8.16-9.88S366.71,344.14,366.71,349.26Zm-8.16,8.27c4.56,0,6.4-4.31,6.4-8.27s-1.84-8.28-6.4-8.28-6.4,4.32-6.4,8.28S354,357.53,358.55,357.53Z" transform="translate(-198.79 -226.8)"/><path class="cls-1" d="M385.87,358.77h-1.36l-.28-3.28c-1,2.6-3.4,3.64-6,3.64-5.28,0-7.36-4.08-7.36-8.91V339.78h1.76v10.44c0,3.76,1.28,7.39,5.68,7.39,2.8,0,5.72-1.6,5.84-6.43v-11.4h1.76Z" transform="translate(-198.79 -226.8)"/><path class="cls-1" d="M392.35,339.78l.12,3.68a5.73,5.73,0,0,1,5.56-4,6.82,6.82,0,0,1,4,1.44l-.76,1.48A5.33,5.33,0,0,0,398,341.1c-3.12,0-5.4,3-5.4,7.16v10.51h-1.76v-19Z" transform="translate(-198.79 -226.8)"/><path class="cls-1" d="M414.35,339.78v-2.56c0-4.48,2.52-6.8,5.72-6.76a6.24,6.24,0,0,1,3.56,1l-.76,1.24a4.69,4.69,0,0,0-2.72-.68c-3,0-4,2.48-4,5.2v2.56h6.56v1.36h-6.56v17.63h-1.76V341.14H411v-1.36Z" transform="translate(-198.79 -226.8)"/><path class="cls-1" d="M439.71,358.77h-1.36l-.28-3.28c-1,2.6-3.4,3.64-6,3.64-5.28,0-7.36-4.08-7.36-8.91V339.78h1.76v10.44c0,3.76,1.28,7.39,5.68,7.39,2.8,0,5.72-1.6,5.84-6.43v-11.4h1.76Z" transform="translate(-198.79 -226.8)"/><path class="cls-1" d="M447.47,333.54v6.24h6.32v1.36h-6.32v11.39c0,3.25,1.2,5,4.48,5a3.72,3.72,0,0,0,2-.56l.6,1.36a5.47,5.47,0,0,1-2.72.76c-3.76,0-6.08-1.68-6.08-6.6V341.14h-3.32v-1.36h3.32v-5.32l1.44-.92Z" transform="translate(-198.79 -226.8)"/><path class="cls-1" d="M472.19,358.77h-1.36l-.28-3.28c-1,2.6-3.4,3.64-6,3.64-5.28,0-7.36-4.08-7.36-8.91V339.78h1.76v10.44c0,3.76,1.28,7.39,5.68,7.39,2.8,0,5.72-1.6,5.84-6.43v-11.4h1.76Z" transform="translate(-198.79 -226.8)"/><path class="cls-1" d="M478.67,339.78l.12,3.68a5.73,5.73,0,0,1,5.56-4,6.82,6.82,0,0,1,4,1.44l-.76,1.48a5.33,5.33,0,0,0-3.32-1.28c-3.12,0-5.4,3-5.4,7.16v10.51h-1.76v-19Z" transform="translate(-198.79 -226.8)"/><path class="cls-1" d="M504.63,354.78a7.07,7.07,0,0,1-6.8,4.31c-5.6,0-8.12-4.64-8.12-9.79s2.36-9.92,8-9.92c5.84,0,8.2,5.48,7.88,10.64H491.47c.2,4,2,7.51,6.36,7.51a5.47,5.47,0,0,0,5.36-3.36Zm-.76-6.2c-.12-3.72-1.92-7.6-6.2-7.6s-6,3.88-6.2,7.6Z" transform="translate(-198.79 -226.8)"/></svg>